<mxfile host="app.diagrams.net" agent="Mozilla/5.0 (Windows NT 10.0; Win64; x64; rv:139.0) Gecko/20100101 Firefox/139.0" version="27.1.5">
  <diagram name="Page-1" id="Em61Q6fA4jk-l0La3C0t">
    <mxGraphModel dx="1489" dy="831" grid="1" gridSize="10" guides="1" tooltips="1" connect="1" arrows="1" fold="1" page="1" pageScale="1" pageWidth="100" pageHeight="100" background="none" math="0" shadow="0">
      <root>
        <mxCell id="0" />
        <mxCell id="1" parent="0" />
        <mxCell id="zRM0NVhPmcdbdyi5GUMT-1" value="" style="shape=image;verticalLabelPosition=bottom;labelBackgroundColor=default;verticalAlign=top;aspect=fixed;imageAspect=0;image=data:image/png,iVBORw0KGgoAAAANSUhEUgAAA0IAAADeCAYAAAAQErDRAAAAAXNSR0IArs4c6QAAAARnQU1BAACxjwv8YQUAAAAJcEhZcwAAEnQAABJ0Ad5mH3gAAP+lSURBVHhe7J0FgBZFH8af97rp7u7u7lRCFAOw/USRBkkVkBJBBBGkRUkJ6e7ujuNoOK7gOt97a7959t09juMODgRBmJ8u9+5szc7O/Of/zMzOGhQBJBKJRCKRSCQSieQVwkH7K5FIJBKJRCKRSCSvDFIISSQSiUQikUgkklcOKYQkEolEIpFIJBLJK4cUQhKJRCKRSCQSieSVQwohiUQikUgkEolE8sohhZBEIpFIJBKJRCJ55ZBCSCKRSCQSiUQikbxypO87QooFNnMMf4gjHGGwh4rf+i8R7ughVp219acHoxcbG6v+TR5V9ZdYN4g4ODg4wNnFBW6uruo2iUQikUgkEolEInkY6RJCSsIVJPovhDHqhhAeVjg5u8DB0RmOTk5CF7nCwWCDQ873YfCqpB2RNidOnEDlypW1tUdDEbRo0SIUKFBArBmE9rHBRlFks0c7PiEeYaGhyJM3L2pUr47s2bOr4Q9DscbBEu0nzmGGwUHcgxBTBiGm+Ff84FUAt3wwOGXSjni2hIr4m0wm5M6dWwuRSCQSiUQikUgkz5L09QgZbwBxJ2AxW5Bw9xgckCiEkItdCDmJvwYzHLK9A3hV0A5Im5EjR+Lbb7/V1h5NTEwMdu7ciTZt2tiFSgrCw8Nx8uRJFC9WHMdPnkCrli3h+qieIXE/puBVMIZfEmIoTgg7dziIe3F0pLATIs9BCLvs78LgXVU74NnC+EdGRqJRo0ZaiEQikUgkEolE8ngEBATgiy++0NZSh67/8OHDUbXqv+PnPg7vvvsulixZoq09yKlTp7BlyxYMGDBAC/lnpP8dIWssnFy94J69JqwWkwgQ+kmxCSVlY4ral3RQqFAh7Vf6sVhsSExMFELMikSTSfw2wSgWi9UKs9mMs2fPYvmK5bhw4YIQTrHaUQ/B4AgXr9zwLtgOTh75oRhcxOIuUkMsjm4wOLjAcG8A4DPH29sbmTNn1tbux2azoXv37qq4c3NzE2LNEdWrV1eF079B3759sWPHDm3tn2MVz+z777/H9u3btZDUWb9+PUaNGqWt3Y+fnx8GDx6Mu3fvaiESiUQikUgkkps3byIkJAQ//fQThg0b9sDy448/qj7n0aNHtSNeLDiyq127dtra/VgsFlSqVAlNmjTRQv456RdC1DmmUBiEiBDeufjfKnSQ+Mv/hBhS7G/tPBK+z/P4CLHFfw32v3aRYlCFUOas2dGrd2/06dMHmTJnUeP1aERcbQlCxMXDI1dd2CxGESbOzWNtHHbH66Tvfp4G6tC8VHq7CB86xd7mzZthNBqThESmTJmwfPlyba9nx40bNxAdHa2t/XMo5G7fvv3Ic1LosVUjNZgO/v7+alpIJBKJRCKRSOzQnyxYsCCKFy+u9vikXEqVKoWSJUum6Xc+b3755Rc1jm+//bbaGaDj6+sLZ2dnxMfHo0qVKlroPyedqoSiQBMHilloBeGA8j0d9gIJ4WBQe4OekXAQ51bfCRKLQRGCQSzif/GkxbqTCyxRoYie/RVwaT+s4nbSHQvuaIkRixBBPL9IbF6D7yCJKz6ru3lsdJHEB6/TsmVLbNiwAUOGDNFCgISEBCxYsEDNQPPnz0dUVJQazt6cS5cuqb/JypUr1X0JxcTBgwcRFham9qYdOHBAPZ5DEXWcnJzuE68816RJk9T9Nm3apIXaWb16tRo+Z84cBAUFaaFQhdzSpUsxefJk9ZgMGTIknZOCZ8qUKeqSXNhRMGXMmFHt/fn555+xcOHCpHgzPRiv5IWYPUg8P+9dhyJy+vTp6rkPHTqkhUokEolEIpG8vDyqoZj+0YvMDz/8gJw5c+K9995T148cOaL+Pn36NNzd3dWwp0X6hZA6BM4Kg81M3WAXDfyPK6pseDbKkmdWFaGjMxRHJ1UEqVfjb/E38Zd3YTu0FHD3UUWMGrlHod4A96X4EcKOEy/wfrR7USdLUJf0sX//fjRt2hTt27dPWho3boxr165pezx96tatqw4XDAwMVDN07969sW3bNlUsUPz0799f3Y89SbNmzVJ/R0REoEOHDurYSkJxQYFw8eJF9R0sChkON+vRo4cqilLC+3nzzTdV8RIXF6eOL6XAIWfOnFEFFCe32L17tzqkju93kW+++QZ//fWX2pNDwbJ27dqk97j+/vtvVexQ6LGn648//lDDuX3VqlWqsOF9Mvy7775Tt6VsxZgxYwYWL16snp/3MHbsWDWc40ePHTum9kBR8HG7RCKRSCQSyaMYM2YMWrdufZ9vl3zh8K1WrVppe0ueNmxYL1GihNr4T79u2rRpKF++vLb1KSKc/0cTf1VRAmeJZaZiDfhTCTv0iRJzqocSf663kug3ULH49VNssae1nR+OcL61X+kjKipKWbJ8hRJz44KSEHRVMYowo01REsQSOaadEvGWgxJ79Yy676QpU5Tg4GD190NJuKkoQbPF/cxWrMGLlPDD4n5O91Tiz/dRjH6DFMtlcT9RR7SdH01oWJiy/8BB5djxE0nL3n37FSEWtD0ezpUrVxShcrW1+zGZTErXrl0VISC0kHvUqFFDuXr1qrJhwwblww8/VPclwuFXRAFVhIJWhChSGjVqpIZPmjRJefvtt5WRI0eq6w0bNlQuXLig7N27V6lXr57i7++vhg8bNkwRmU79zf3XrFmj/m7btq2yfPly9TcR4kcpXbq0+lsIMPWvTpcuXZQTJ04oQlip8QwNDVXDhYhSKlSokHQ/fL46586dU+NEVqxYoYgMrwjxpq7fuXNHKVWqlCLEmOLr66veL8/J7c2bN1f30REiVE2XsmXLaiFC7prNitVq1dYkEolEIpFI0ubixYvKgQMHlEOHDqW57N+/X9v7xYFx7tChg7aWOiNGjFB+++03be3FhlKFft2zIp09Quw9MSf9FcepvTR6TwonH0DMabGZ+zx9FCc3mLbPQsIHRWC5chK22BgkftcMOLoGLrPDYChYzr6jNb1D2hhvDu/jO0FW9R0ncTPglNwG3hMXdShg+siSOTPKlS2D/PnyomiRwsibJzeqVqkMDw8PbY+nD3s32DPDZ7Fx40YUKVJEHTtJ2JtSuHBhdbhbtWrV1MkY2HPE4XR8UY69PZxgwsXFRR2Hyd6YihUrJk097uPjg1u3bqm/9WFo7CkShV5tHdEpV66c2lvDniZO5MCeGe7Phdfi/TMOWbNmRZYsWdRjOCyuQYMG6nA5wmvznDxGCJekIXOcTpwvw3F4HMmWLZvaTcoeJ71HiPFnLxh7uHjP+rWZNjly5MA777yTFBf+fbL30yQSiUQikbxqsDeiVq1aqFGjRppL7dq1tb0lTxuOFqLvxlFPderUUYfG0ed92qTfM1TFAoWDRcgI+3+E0kMxOAlxclSsPL2X6nV4FcUYA9fOP8Lpnd4w9a8C09i2gL8vnCecgcFHOMrCGSd8l0gVZo+C+4j7YOyhmNSLqPchwtX/xP0o0eJ+rHH2/dMBh5lRSNBxp8O+Zat9+NmzgsPPypQpowogioCU4z0pBhju5eWlvlTGIWzFihVD0aJF1XW+j6NP18375nhSfUwpRW5K0UChQ+FBgZIc7uvp6YnPPvtMvYaahmLhEDruy/eP9CFyOlynuCL8dtJHH32kHnP9+nX1L+H1U06oQOFHcaXvw7+8x2bNmqmCjOtcOFSRceKQPB7DWfe6du36wo+JlUgkEolEInnVOXz4sNqYzXeC+M44X51go7r+ztDTJJ1CSDie7D1RZYIQQmKVEyTQ6TTQJ+VfA3sjnkGLO69jZe+MApdPf4ZjvQ+AWxfhNGAFDAXKaiLI7hhbKdbSBfejCGKvkLgf/uRNCdS/FELGK+KE9zvwD4Nztm/abBc/R48eR9s2Qqw9JZgJOEuczp49e9CtWzd8+eWX6jrfF+IkCPoEBezN4cJeHkIBxLGu7P2hmMmXL5/ae0NRRPR7TwsKJPYq1axZE7169dJCoU5EwNYQnpPiRp+8gRMi6L0wVPGcuIHzvhNm6hUrVqjCikInV65c6swghMfrYowCh/PIcxpIwt9MBwo/XdCwV4mtNRRQ+ntPhO9I3blzR51hhD1Q3MZeKy4SiUQikUgkLzNsDH4YHPnzosIRS3xXne8IJX8niBNf0X9lQ/vTJH3KRVUKwvk0OCLqjq86LYICigircKL1nhW7UHoWWDlZgsUsomCDU9epcPrhAByKVRNhJtWJTxIxHBqXniioN8D4GmCwWVRZxAkSeB7hu7ObQ/x1EoGPJ+xaNG+G02fOomrVylrIP4digt2DFBx06jlbxrhx41ShwQkaCF/Y69evn5phKDA49Iy9IJwekeTPn18dgqZnKPZc8bwc2kb0YXb6NIUUNVwnFA+cGIGw14v7UpBQ/HAyg5kzZ6rbunTpgo4dO6o9UNyPoovn4LU4cYMumBh3TiTBD+GyIDZv3lyNC6d5ZDz13iOKJw6No/rncbwfzh5HGAfGi3/ZQsBZ7Lgf04aFn/PnMx6ME4cLsseIPUIcXieRSCQSiUTyskIfjRNNsQGdjdgpF45c4idnXtTXBeircmKE+vXrayH3GD9+vDrqqlOnTlrIP8cgnP9HS4c4PyB0NeDsiqDrfnBzd7NPq+zkCCdn+0c+qRkc8naHwcn+TkdaLFq06LFuICo6CmtWrcEbQgE6arPGqe8kWe3vKul4egiBMGECPujcWe1leCjxl+334+SFkOsH4WCwCWfbFY7inpyE0+3o6AwHRwsc8w8BXHJoBz07rl69qoqN5MpXIpFIJBKJRCKRPDvSJwddcwulURZICEKuOtOQqfJEeJf/EZ6lx8K12DA4Ff4GjgW/eaQIIinfMXkUqtZxMMDNzQXuYvFwFX9dHOEuxJiHED/6Qgxqv046UIfxCWyxcMpUHW7Z6sA5Sw31t2OGanDwrgyDV3Vx3ac7V3laJH8/RyKRSCQSiUQikTx70tcjRDg8LmIPkLmhFvBkcJgXZ+JILxwi9eu0aShdurTQQwZtQgSOXlOnNxA/+PlTwMnREbv37sHAfv2RO48Qbg/DJsRYzEng7iqgqP2bM88T3iPfd+EwL4lEIpFIJBKJRPLsSb8Qek5Q8ISE3AE/lqpHVf1X/Lb/tf/DPxzvmDNHjqQZyR5J3GXAs5i2IpFIJBKJRCKRSF4VXnghJJFIJBKJRCKRSCRPmxdzygiJRCKRSCQSiUQieYZIISSRSCQSiUQikUheOaQQkkgkEolEIpFIJK8cUghJJBKJRCKRSCSSVw4phCQSiUQikUgkEskrhyEy3qT0W+YLH7d0Tjn9H8KqKMjo7owRbYtrIRKJRCKRSCQSiUQihNCtsHgl/8drgAyuWtBLhFWBZ2Z3xE5pqQVIJBKJRCKRSCQSiRBCAREJSp6u64GMblrQS4TFhhyZ3BA8oZkWIJFIJBKJRCKRSCTyHSGJRCKRSCQSiUTyHyc23ohjF65h88Ez2LDvFLaIvxdvBCLRZNb2eBDZIySRSCQSiUQikUj+k8THxWPxtmNYf/wGdl+PR3ikFbAZAAcbiuR0Ra2CHuhQuwTeaFhZKJ/7+4CkEJJIJBKJRCKRSCT/OYzxsfjqp2VYcjYO8e4FAK8sgCPnPRBCSBGCyBgrlFI4Mptu4PP6eTG2xzv2AzX+paFxihAlIjIW8ddmA8xiET8lEolEIpFIJBKJ5PGxoe2QOZh7xob4nNWAzHmEBnJBVi8D8mZyQK4MTnDy8gEy5Ud45hr4YUMAhk1fph1r5xkIIU30xJntS7xYEh1QomRutC7oBDh7onZpH2QQkZdi6MXDZg7BhSN+EPr5JSQWJzdsxNWX8+YkEolEIpFIXhnGzFmDrdccgTwVAEfx12JB46I+WPtFcezqURInBpbF961zwZuD3pycgYK1MWnzFSzdesh+AsFTFkIUQQYULJwXY7tVwbyvqmH+5+XRLp8TvDJ4oog3kEGotekfFUZZByGWXmghFIU90+fjVJy2qhKCtT8vwXUR9ZeD25j57VAMHTIIX09bjbvx4vHF7seUgXNw7b8qUi2JOLrxd1wT95KEOQzb9hyEf1wUQq9eQXiiFi6RSCQSiUQi+VexWh/tSNs4guwhhEfFYt5OXyAf3/sxiAOE48rXgsS2JcfC8MnC6xi+4TY+qJYVlfN62kekOTgi2r0Elu71hTHRpJ7n6fcICSFUvGgOvJ7VjPWHbuGPoyG4EJeI41vPY8qheLg4KIgxWmGmo62ISEUZgUixxFvsN/HCEI39c5bgzH29B3ewceoK3Hj4s/lvYLuCqf8bipDK7dDxrQ5o6BiLs1FRQlG7wdPHGz4iM/0ncbDB/+IhrDtzTwlZAi/g8KHNCIvPg2Y9eqBaFm2DRCKRSCQSieRfIygoCPv27XuoGDpx4gQuX76sraXO9qO+CLBmBlzchJ5QRYVYDNhzNRpT99zBnguRWCwEkZOjAd7ujuoxqu5wz4QTt03wvRGkBj2Td4RsihX+N8Ow7EgAtp0IxuUgN3z9bSOsbOaDqESbGlXug3gPbJr/JpS/OuDUB/mRlcPlXhgx5AgXd3d4uGurKmLdww1OWqqdnNwOJcuUQYnKr+OHtRfUsLiQVRj02icYMOB/qJQ3G0bvjceOnzuhSL5ceHvqaXUfcZM4NKcvGlQohmp1P8Wu5zFUyxqJc7FF0bF9dVSsXB2vde2MxrkyiLxkgHPiDcwc+gWq5c+Gd+besu9/azM6vVYbZUqXQr0On2N3CAP9MKjCGxj121BUqfwBNt5IBIzH0b1WARQvUhP9V1xUD/1XcXBH2Qp1Yd61K2l439XLV+BpaIyK2W5gULm3sUXtEUrA+m/fQvlSpdCi80j4ipDr09ug/2YhymHEljFfY9gfJ7kjjmz6FbPW+6u/JRKJRCKRSCRPRrZs2eDo6KiKIbP5wWmtjx07hjt37iBv3rxaSOrsP30Z8U7ZtTWhHYT/SqGTYLLCIhZ3T0f0bZQTwdFC9ATE27dTZwjhdP2uFVf876hHPhshZDUgZ8Hs+F/jQuhYNw9yetpgUjWOoo2GUxAXZ8D/hjdG7iUbYGi2Dn96ZsOXRT2Eg/6iCCEhCFxNOLlxB3Zu3YxNm7Zh9/4dCHZ2hosQluFrvkffM21x8fx5+O0ZgVurp+PgbQXubgouXQlFhc9m4eTtBVj4dnXsq7MIV/23wmHaD9gmzhx9eBF+PZsdG8RDPLqxAzYNX4hI+0X/PZyroudrCRj43kD8tfcobkXZu7kcHcy4dC0ExTv/hqO3/kTQjz+qIuGif1b8uv4Azl/wxew2WbBkzlYR6glj3E2EZ+2K4yf+RKuCrpj5/qfIOuMmLl3diewbF+NI8iFq/xLFihdBSPg2nPJnXorF9UvXkL9jffHbDMXBAS6uQtf9NRq/OnTGGV9fLOpdAOtmHkKhDp2we/1O9RiDTwR2+9oLSdC5U8hUIp/6WyKRSCQSiUTyZDg5OaFmzZqqGNq/f3/SEDhFaISTJ08iNDQUjRo1gqenpxqeFrEJCWrjNzUF9Y3a20OtI1Y9PZyECMqNTtWyYvSmQFy9axTbxHa6hQbhxNuckWh+VkPjxFV4T54ZPFGpYEZUy++DHC42WG1CBCVpHAVmqw+q5EqEtWgp/DKkIt4unw1NszNy2i4vAA6OVgT6ncXZc+dx/vw5nD1zFbEOjnAR2/btNuPDL1637+hVCq9ny4DjV0PEfTqheMW6qF2cGwqhXfaqaFadv7Oibg4LQoXiCY8KgoNwwMeM+QHfjFqPoDu+uG3hPv8upbqMwZIhlXBx00r8NGwyjkYxDzmhSJmaqFuauako6rqGIlA8k5JVvLDul9EYPnIEpu29ASerCVbxsDy8y+LNjvntJ8RF+J72QfCaCfjhxx9w4vh2HA/WNv2LGPKWQtUsGYV4CwQij2Dn6RyoU5BbFBhEAXASv/wDEpDlyi6MHDsGY2ZsxbWAq4jPXhttQg/iwKVgJGTOi+J3g3HNeAnBfvlRviiPl0gkEolEIpH8E3Qx5OzsjIMHDyImJganT5/G3bt30bhxY7i6cvrrh+PCyQ8UIWZUbSH+UUWQ+Efojcp5PfBGhUyYsTcEy47cFeFJAkRsp9CwwEn48+QZCCHhSjsruHb2BnrOO4UBSy7idIQTXB64kgFuLkL9nbiNxScCMGTWcXQ9I9SdM+/kRUBBYrwH2vTvhZ59+qJfv97o/uUXKJZoFsnH2CciPlGPq0hMxRXu7rxJBRaLGfbOPgtMihUmVeTwvSgDHMQuVrGepVBFNGnREm3f+AgDhnVHMXrnzwH38u9i2OgxeD37SSxe70v1J+Jnhl0nW2B2cIFXXCwWTPkL4XmqoX3711G/WlF4JSl4C7T3zQRWkTCZUK1FGzRv2Ap9pk9Dx+fSkZIJLWtmwTkhTAN2Lkd8vbeQQ9uiYzEZkKtcHbRo0QJv/68X+nz+GjxQANVyrsOaqwoy5+6Cj4texsGLR3E9V2OoulYikUgkEolE8o+hGKpVq5b6rtDff/+tiqDatWvDxYXdDY+maL4cMFiiVOGjog6NE7/F/5ndHRFvsmHT+Qj7dlWDcLv4YzHB28uA7Jl9GPhshsY5Cm/fw9UJPu7Cu3cTIsFBiCMnB1UMGQwGuDo5wtMlFL/vdcB7Ndxw8HwYDl6JxMVY4Vy/KDoINpFWRsTf9/5OHBISE4QEAuq19sYfI0ZB+MwIObQKv0eGo26x7LCZhQgymbXnYoNZqAT7aD8hkEyJqmgoUqIs7uIavDMXRdWqFVG8YE48Wvs+ZW6twZe/bERUTIIQaIGISciOXF6eqrCxCOVmlzkiDYTwUyxx8A+JR7YiZVGxdHHEntuLyzaDeFT2+7PvS8qgaYfb2HVKqPHq1VC+YhlkFYL9eeBTtz48j/2FUX9E4q23c2qhjK9RfX5V6+TC4WvXUap0BVSqVAFFcmdU92jRtgl2z5yDkHxFUevD4hjZcRRKfVpX3SaRSCQSiUQieTo4CL1A8dOwYUP1r5eXl7bl0bSsXQ45bYF2oaOKHOGNqj0/Cs4FxmPanmAERAqnW2gQe08RvVXxNzEGlfMaULaI/R2kpy+ExBnvhkbjwG0jzJzOjhd1suLq9QgcibRBMcdjj18MjB4u2D1lL+blK41LYxrCb1B5tM8shNM9r/o544aidasjz33C1BvlGlVBBguQscm32DYoE/q2eR2f/nIMH3YfhhKZRPSdcqBs9RKwP0pvlBX7Z2Uy8Hx1qiE3U7xICwxpWhRTe72Htm99gDFLTv/7t52/Lbp77cIHnd/FW20+x8ECrdGzbX7xtLKgTM2S8FbFmzfKNKgIr0w58PkbpXDgh67o8GE3BFXvjU4lsog4u6N0o6ra/dl5bewClFzTH+3at0PbrtOgzqnwPHAshy6VFJg7fIcGSc/QC2VEfDOZAc963TG2eCQ+fPsNvNGpB37fcV3dw1D/Q/yvRHlUKyJWclbAR00/QqWHv68nkUgkEolEInkC2DNUoECBR74TlJLShXKjCR3vO5c0AaQ5o0IYtSmXCYs/KYayubW5B7hdm2LbKe4aWlfKn9QjZAiISFDydF0vPHt+behpIC5mstrVF2cVUOMlwoxCPfBjRw7cLhY3IXr44lKM8ErFqjpmjD1Ijsm86n+KxYYcmdwQPKGZFiCRSCQSiUQikUj+69wODEbdvnNx07kU4JNHhAhBYbWhSkFPtCydEfMO3kVAGCdKENqCWiP0CtoVjcbcIe8jc8YM6jmefo8QlY+LEDSuuggi4oebM+AsLkcxRMGjbhPr3q4i8mLxEtufpgiSSCQSiUQikUgkLyV5c+fE3D6voZDlMnBXLBwmZ3DA8RtxGL02AAHhHBondAdfzg8+i/I+QZg94N0kEUSegRCSSCQSiUQikUgkkmdL4xoVsGHUu2hTMAqegTuA8KtATDiQGAdE3wFCzyNj2G78r5Y7dv78ObJmzaodaecZDI17gZBD4yQSiUQikUgkkpcev5tBWLT5EM5dDYDRZIaHmwuaVC+NtnUrIHe2zNpe9yOFkEQikUgkEolEInnlcLDPNCf+4bi6l20R92WfuloikUgkEolEIpFI7mHwD4tX8nVbb5+w4GVDqKCcmdwRNKEZbNoHQCUSiUQikUgkEonEoNisiikyBA6cze0lxGy1ISSan9CUSCQSiUQikUgkEjsGRaD9lkgkEolEIpFIJJJXAjl9tkQikUgkEolEInnlkEJIIpFIJBKJRCKRvHJIISSRSCQSiUQikUheOaQQkkgkEolEIpFIJK8ccrKE/xg3b96UU4FLJBKJRPIC4eDgALpT/9SlKliwIAwGg7aWOomJiQgMDNTWJBJJWuTLlw9OTk7aWupIIfQfw8/PDyVKlJBiSCKRSCSSFwCKoKCgIHh5eanLk7hVPMfVq1dRqFAh9ffDiI2NRUxMDHLlyiV9AYkkFViGbt26hZw5c8LFxUULTR0phP5jXLp0CcWLF9fWJBKJRCKRPG+Cg4Ph7e0NT09PLeTxuXbtmtojlB4hFBcXhxw5cmghEokkJbdv30b27NkfKYTkO0ISiUQikUgk/xDZriyR/PeQQui/jmKB6fZCxPr9hPirv8J4fTpM/rNgDpgLa9CfsAXPhxJ9SNtZIpFIJBKJRCKRECmE/usoClycbXByVGCOPA1L9BlYo8/BFntBXRB3AUriTW1niUQikUgkEolEQuQ7Qs+Ju3fvqkvp0qW1kPTxwDtCNrM42WLAPTcscXeRELIfjs6ucHB0goOTMzjU2NGrAgzZO2oHPBvu3LmDU6dOwWq1wt3dHWazGUajEUWKFEGBAgXUF0kLFy78wNjn48ePqy97VqtWTQtJG86Sc+7cOVgsFnVWndq1ayNDhgzaVqjX27lzp3o+XqdWrVrImDGjtvXpEh8fj9OnTyMiIkJd532XLFkSxYoVU9cl6ePy5ctqfuHY+qNHj8JkMsHDwyMp/+TJkweVK1fW9n428Drnz59XyxXj8bgcOHBAzYdlypTRQp6M6OhonDx5Uh3/z/zNPFWpUiXkzZtX2wO4cOECwsLCUK9ePS3kxSUkJES1cWXLltVCHg7fsWC5op34twgPD1fzHdOa0LY0btxYfeH9WcP04XseT/N+aYejoqIeaod4ryx3nE0ptfdZfH191ReMM2XKpIVI0gPzrz5Zgg7LKsu1o6OjWi9xcgNXV1dt64PId4QkkgeJjIxUJwchPj4+9/l9DyO97wg5Dhdov/8RLOSPmvLx3+BFicfDYEW1fPly1WnPkiWLahzTCw0rj0lCERV4whlRuyXCwSMvEsPOqiLI4GAQ6eAAB4MCg1sOGDzT54zoMAPRQaUBTw+sWBcvXowTJ05g6NChqkGn+KEQobPx888/o0WLFg9kyFWrVqkze9SoUUMLSZsff/wREydOVCvyNWvWqMvrr7+uViwUiJ988onq0HKK8R07dsDZ2RkVKlTQjk4bpimnI+X9phc6rJ07d1YLJ6/N686ePVstsBRo/yUoOrZs2aJOMfmkzg/LHdP9cYVnt27dcOXKFdXh//3333HmzBkMGjRIdcZCQ0PVMffpEcl0QphX+cwfl8OHD6uimUKmfPnyWmjacP8bN24gf/786vr8+fNVMZWeYx8G82ynTp3Ue6DgP3v2LKZMmaIafl1MbN++HceOHUPDhg3V9X8Cy+Vff/2FihUraiFPFz7P0aNH47PPPtNCHg7LD+1BmzZttJD0w3zi7++vCtnHsf+8/88//1y1S0xzNm78+uuvqjPK2bueJX/88YdaD7Rt21YL+ecsWrRITfc333xTC3kQOub/+9//1PyaO3duLfQetGtZs2ZFqVKltBBJeqA4YT5KXsexcXDz5s1qud21a5dajjNnzqxuo33js0gunNiwRhv6qDzMBiPa7UcJdjYe0razAYX1MQXuk9jI9EK7zfr5UfFiWdu3b5+6P+tO+hu0p+n1N/4JTAvWV4+K4+PA2Xz5PB7WkMbnTV+Hzz/l801ISFDPweOf5fP5L8J0WbBggerv7d27V/UXmI/1cvQwWL7Y2POofPVUhsbRAWar6POGBTAgIEDNVC8qNGALFy5UHSkaTFb8FA//CHbqsWfIEi9+2tSFYfbOPn1JP2zFXbZsGVasWKGFPBo6U3QgWLk3atQII0aMwLx589CxY0f1ubCAp2Z46Aj37NlTW3s4NB7du3dXr8OKha3Hehy///571WFeunQpZs6ciXXr1qFp06bqtofBNFq5cqXqENGZTS+MS5UqVdT7pQPHe+Xfn376CWvXrtX2+m9Aw7t+/Xq1NflJoYGnHWCl/zgwT/D6dMgmTZqEWbNmqflnyJAhmDt3Lr788kttz7ShGKVDyeVJ+Pvvv/HGG29g06ZNamX2KChEDh48qK1BjSudx38K8xQFzrRp09S89Oeff6rCv3fv3kn29d1338WwYcPU3/8U3uvUqVO1taePm5ubKuLSC/d/UueEQphlmM/ycfnwww+T0pwV7jvvvIM+ffqoDRzPEt7vP5lhLDXYUvqoc7K3gc8lrbTmtof1WkjSD8Uk05u93HTcdIeM9Q6dOtZVzLvPAjZOsh7kiAyOzKDzz4a6ZwkbCClqHgUbeegLFS1aVI0bGyLHjh2r+m/PGvpbbDR5mrABj3Xgw+BzZvrwOaSEvXusV/hXcg/6JEuWLFF9ejZYsVGNaURfg37q0+IfC6EZM2bg4sWLL0QXLY0MFw45eByn9t9k8uTJ6gOkUaQxzJYtm+rMc4jYk0Phw8WinpMFTRVENoohuyh6HBinOnXqqK1Zj+tc0rhxSV6g6eCx0mdG5u9mzZqp+5CPPvooSThQ+XM7FzoiqRmM5CKXBpSGfePGjaoz/M0332hb7KSnp02PD58J8/LjwGE0yePIHgU6rj/88IMWAkyYMCHpnmrWrKmF2qFoYCXJbWzBZWVAccWWI8KeKr1HixUae9qaN2+u7k9nja19bBnhOoWnDlsVKSYYTmeHPZCkV69eqqPHeHKbfr/169dXHWLGj04hef/999V9+Nz04X8Pgy3oVatWxbZt29SejX9CyvzzKCiyeQ90XNka/jgwzbdu3Yrp06erdoPf8UgOxRjTgQsFyMCBA1UxPmDAAFSvXl0V+ezFYeU6Z84cvPXWW9qR9t4bliPCViwOg+V52PuVVmNNSiHG+2JjAR0mwmfIhhTC/E7nnUKS4YTPV48ve1B1eF9sjWY4nxUrEvbCsvJl+rGyIexR0I9n44Y+HIF2gHmMvQh0rNq3b6/2jBG2hH/wwQdqg0J6YOOPfo3kQ7i4zvz67bffqr8pjh/lXOiwrLNX78iRI6qofxxS1hU9evRQy+Hq1avVdZZz3q8e58GDB6vhTOvkvVespNkQQpje7KFmGX7ttdfUxhsO0eDxbJlPDaYnbS/3Ybnev3+/tgUYP3580vXffvttLdQOe5QYziF2dLR0EcNnx2Gl3MZ01UUi19kIt3v3bnV4HNfZkJQW+vPgoucTPnP9uhy+qtsYyf3QbjMPtGvXTn2mzEuE6caGO/orj2uz0gP9AJZtDvelXabNYT2Xsk5MrY7lsVzSIuUxyddpi/T897BzsF7Re+AZN5Yj2jrm0ZTnf1R8HkXK8zGOKXsIuE9a13jYNj2c95P8nKnFmduZNqzzU25jGOPFv8lJ69qphb2M0C+mgNRtMvMy6zqKbdq6p8UTCyE6AGyx5PCKL7744oV5N4KVJ1tf6NT8054hGncaqeTOCYf/sLDqjnx6YWXL4WF03Nmqy4fK8/MBszKiA/JkD9YgSgULujCwigk2CiAWQiGCGG4vMI8/VJBOHp1hOhZ0glIak8eBhZ+OHJ0JxodGQ2+J1p8R8xMNNR1g7kOnIrU05rGE+9C5ZDxZoZcrV+6RXw9OCzp2HCrCa7NX4nGfbXLoPOqOFVuZ6bSqz0MsHTp0SHq3g70PvKZu6Ngaxt+646lDh4Pw3ugM0THn/hRLFEk0Elw2bNiQ1LPItKNo4n4c6qMP1eM5vvrqK3UoAhsv6LSx/O7Zswf9+/dXjQ57uJgGbFXm8dwvvaKEz48VPoUpxQWP/7dghUoRxzzBoWq6w/EomLcpAOmAMp2S9+axd4ojh3kfXChWx40bp4oPNmiwbLBy4zPjM+fzTd6LwHjQaWaZZ/rSQed52IPEspVe+JzZxU8o3PR747mYx2ifGB/2SvJ+9PhySAyH49DOsGeWeYzhbInms6K9adCggRp/2iQ69oybfjx7anXxrjvB7HWhDaQTwyEmhA0YLMcc+poeeA/6NSgc9d405jk65K1atVK3UchR+KeXunXrqqKUQpzDKHiOJ4Xv++kNEnzuXNfjfOjQIXXIH/O6LtTYcslnzzqRMB9SIHAYM4f/sEeP+7D86kPhmKY6fBZsKOK5eQ02KLCs8jx8vszf+vWZ1iNHjlSPowClc8twDkdm+eVvwufDnn2us8wzPbkP60fmXZZTtoxzO+0H82tKxowZo+Zf7sOF+YN1K20HbR3DmN7snX/ZYJ3ExgyO3kgJyyDrnevXr2shD8IeGT4/2nxdjCQfesx3/zi0m2Vbb1R4WjBvUXjzeSf3g/Q8x3zLRjs2pvCZcj/CBkE2eOjhfH+O8D5oDynodbHPhlKWV9Y1tIu0IxTYTC8O6aXDmlbjCPNNShtN+8v6Tm/p18/PuHz33XdJDWwc9ZG855flRLe7jC99KdaJ9DH4m8eyEYuCNCWMB8/H4di8Dsu13lDBuLCBjPfHhQ0juh/E67EMMo14HTYW6kKIafn111+rDQg8Ts8jTHumEe0y6wUuyUcWJIdxoE1nnNj4xrxEWKZ5TsaX9jq99dx/FaYX7R+H6urwN+9b942eBk8khOgY0cDyoVB4sGWa4z1TW2gsWFE+LZgRmelYuae1UFmTf9ozxAqAmZitpzSKLKB0Nug8Pu556VzzAXIITokSJdR1npOw8qYwSl4xphuDqPRs4jwsoOwRUgUQK0JFnE8s/Gl9MkHICpbOM9P0n1R0dHzYg8FeCkJHR+8C140H/7L1ioaF0NHSRY8O1/ksaGAoqpj32OLOdNTT8knhkBIOCWHe5v0+KRR9vBfmETrMdMh02ItAA828Q4eSBk6H9853lJgH9HzAv3r6ML+wJVh/cZ6tZzwfYeXKipZxZ1mjU0Njy/OzQmL6M+/yLys/wiEJ7MVl2aVRocHRKwq+G0GHjEaavQfJX9Z/FHT+CMsor/dvQjHDPMLnl14jSYHOSoVwGJ5ewTI/seLXHVtCZ5TQLiTPI2zF4/58DlxYgXM705y9FOz5o0hlpcprsUeE+UN3tB+F3sJK9B5EwjxBAUNYWdCRZXllBcvKkoKFTjjFEMuK3nvBhhfaIl5fd5J4PG0b86UOezT4DHlvdBhYfmm7CMsnh7cQOvnsnaWDnR5oC+h89OvXT23Z04U248IeYjpEpEuXLmpZeZxhLMx/TCM+o+QO4OPCOoRpSfHCZ5e8l5dOHxsN9PcB2PvDdYo22hCmGYfK6NvpkOp5jMJPd/SSP0vaCYpVpiNh7x3rBAoYxoUikz24LPM8Rr835jXdMSV87rpzxB4/xoe969yHz5DH8XlyyBYdRJ2PP/5YFUckud1hLyfzBm0J7S7TlY0rzAfM1/rv9PS+/9dgncf0ZWNoSjHEnh46xqmJJB3mHdoB/f1XCvX73u8V0KYwvR92nieF5YjPn3UAG7v4HAmfPxuq2HBEocvnynthOPMO8wUFQd++fVWBRp+LAod1BMU/nXzWGxQmbARnAwsbdGl7eS+sg7g+atQoVUCl1xbzGnw/iunOuoh2hTaZcaEgoPigP8b74vUJG+r4bpHek0+bx3LDssU6iD2ijAcbk5KLTb3cscGBZYKNBHrjht7jzrSgb8b7YzoxTvpzosCjfeI22iyWU16T8C9HgvC63Ma8QlimmB6sT2lP9CHPtMN6edPjxWNoJ3ldxo3XYzryudEG0AZRRL/s0P+gHWXjnQ41BRvNnqbNeSIhRLXKCpYVBcUQW7movFNbWDmnpXqfBBZWOpMUOWktzLAsvMzIekvqk8CeAmZkZn46TFzoPLI1lwbmceD+rATpsBJWSjr6tid6aVk9DSs+IYRsZlUD2d8TsushRTxiJfE6EHuGO6YbChU6guzOp7P1pGP3Ce81uTNHR0E3jiz4eisL05digOmeWksS96MTx3T69NNPk5xUpt8/Ebw0vMynNEh83nSonxQ6bcwjzHt0GpLfN2GZoRGnkaZz+jBoHHXDyHtP3prIcqBP7sBrceG5WSGwsqUDznTi8AumK++JFaHunHF/rjOOugHXodNFZ5qV2eO8uM6Kis40nThWKCmF7LOEziUdFjqNfIbpmbSBjjwdBFYoTCu+U0YBqI/VZr5IrwjUyzPzJVvl6TxzqBKfBSs/5ls6RHR8OFSKFVx6J5ZgfmE5JMntRvI8wfzEhfaFlT+FCitill3a6pQOWErosFGcpXxmdE6YR4iedwh7imgjmE7sWWDDRHphLxSPYSMGRxLo98T70e9T53HsLJ0gigWKfIqK9Aqz1GBa8JlRqCVPc8Jyp9sbpi8bBZn2FBesuNm7Q+dKF3Qsw3pZpe3TxSXD9fLN6zCtk8NnQTvJc9OJZqswz8k8yeP4XFjXJb9PlnM9vmyIYVmmDaAjqKcltzM+yW0TG4L0BkRCm0BHntfnc2JvBu/vt99+U589e7VoH9577z21vL2MML+zx42wAU5v2WfdxGGLfCZc0oLPmTY2ud1OiZ4HuO/Ths+YfgXtDYU5G2IYH+Y19pxQ5NKhZuMY8xGFDp1L2nH2xLAsMY8xv3Bh2aSoJ/T7mA/1deZB5h/eh97gSWeVeZr5N72wXiI8P+tRvS5mXmXZou+p12VsCKINZ15k2WeZ433wOG5jgx6PISzLuh3T05z2hkKX6aPDuovHsnzTPnMfNiLQXtPe8TimE+OjT6bC+2QZ0+POa7Jeof1lw5L+bFnmeX4uhPHkNWhr9DqYdT7LHRsl6N9QMHHhffGe2dDD58U48ljW+S8zTDOmCYU68y/tDxsrWW8wzZ8WTySEWNHQeWAkaSTZNchWB3blpVw4dIPK+WnBwsYWKMYhtYUt68wszLA0BHpBfVLozFD4UHzxfGwBSencphe9MkyNlJVg+hEVqSissLEQ8h0hfTicNkSO9awlQaymvxuRBVF/14DvQ7Cg/1N0Y6rDc6eEac0WFuYbimvGIzks/HQEOFSFxk9vRWFl9KhhCmnBONF5p4GlE6v3aKQHGq+UIoKOAQ0gW9xZkdJA61CU8x50B5kVUkpoTHWHhHkueSVCo5yc5OlJuJ0Gn+dmzyPjwmFHnA5Y357yHIy//mz069IBY2sUBQHTJa3hDcnhcAA2fLCyZEvjk5aRJ4FOPIUshQvza3pFO49hqxwdV7YMsvJhpfPLL7+oTiMdmNRaapmGaVVA7LVjSzmNtT7tNx0G5isOnWMLIxc6k6mdQ8/TOswP7E1g6yxJ7ZkTVopcWDlQBPAafIa8B+aJ1JwR/bkTvrOY8n7pWFDoMD/R1iffn3mYz5hpyDyiD6FLScr7YUMVywRFK9ODzrXuQDA9kr8rSQHIMs34Pwo6KbRZzLtdu3Z9qK1NSXIBQJjvOXSVz5KtzSyzTAsdxl/PY8zrHD7FeFJ8Mj/RieQ66yLCNEte7mj7dPunpyfzB8t7ciju6VRRVFOosJWZgpO2hc+DeZTpq/euE/bQ6GnOfEhbxLxAe8DnxeuxzLPRJ/n12DKtC109vrwObT8bCCj49DzF69LxZb1Oh5XpxWu9jNDp5hAvPn86tRQPbNhlowbzb8q8kxzmEebH5M8nJSxfTO/0Tgf8JDBf8j1Dlm/mJdZDdCTZU0h7yTzLoWO0HyyXbKRgQxh7hHn/zAuMY/KyzPRIzcYn34/HcaEDnx4oupmerEP4O6WPwHzLssjrslxQ3HEfllGmHxsK+Jv3wesmr5tpY1hmdHgc48UlpY0ivA+KGQ4Tp//HdNKHx9KGMR7JSe6/sQ5hgyh7UXmsvo3H8v4YNx1em3HhNh0KLd4fnw8bG3htDsPj86OwpZ/CPJl8GPfLCG0ZfQ8+Ww4vpY/B+omNvEyXpykCn0gIEVa4dLTYMsKx73ygfMgpF2aCp61amcHTWqi+mVFZWB7HqX0YVP4ch8qM+eLBQiUcCYMDrEYO19GNBytbBQZuVg3Kg8IjLWj8WrZsqRZApunjwAJNhzS58aMR4nPRCzuNiN6iqjsYFAXsomd3O8cv04mkQUsOz6H3JCWHLVB8PjyGQ0w4FIgVlt7F/TBohDhUj0ND0uNw6dCY0QGkw8Rp0NliwcqRThhbX5ludIjYYMDubAo1GkW2LBG+f0HjRkeSBo1ijOlCp4MtrHTKOQRB79FkejLN9DRkWujGmGHcxnTnu1J0wNiTw3SgIaEzRHiM/lx4DNNerwj4m/fA1kCKUDZg0Dliq1V6eipZATEd0zPLW3IY75SVSsr88yhoKJlfWdmnVwTRyWaFT+eOtoJOH51nvl/FfMPhHRwqwedHR5dOkJ6f6ARy6KHutDNddWeejg9FAnth9KELrLzodLI8sXJl+tLhSAnzFJ1s9krxmpxEhRMssEWSjTyE6aWnTfLnSTvL4SN8BsxvPJ4VMfMoHXrmIzbi8Poc58+eQ4ofVi768BAOiWE50N8t4jtszIOE1+Ki5z9C+8+GC+6XGnQ8WJY5JIXn1F/+Z1yZLxnGOOs2hmWRcWfZZTwp6Lg9PdB54r3rk0akF94PW5Xp3NL2sOWfz4vODNOH+YLrPDe3s6yzDOtfnWCvLtOPw8DpKNHpZNllPtQb4ZifdeeHaaI7v3x2uh1kujPN2ULPYSAss2ydZ0Mj8xudI9azzLN811R39BgXDsnjMUxTpp3u8PH6PCfjxv34l8cwnelQ8J1Dxp2trLRPtKGEeYHPmvsyHWhPeO/MU9yH22gfOGKA52QPPu/7ZYX5gPaafgyFHx0x5olHwWGOfAb60KjUYH5nXmCP29OE52Se0eGzpJ1jgwj9Itor5kMKXS58prTD7J2gk0nfjQ1MPAfzS0p04a7bbj3PpXTq04L7JRcPvD5trD5EnHmfDaEMJ8zvem8PYVlj/UQfgfGnfWT5SN5omzweKe+B52N60Nehw61De0kbzjjw+mx05TPkuXi//Etbw/TTe5gYxnzBNGOZZpzZAMl1nk+vG1jPJh8qSD+V19DPTxgv3jv/0mbzfmhLaCeYxjw361rWCfSZ0ju8+r8GG1dYT/L5cCggR5hwiCDtoz4c/Gnyj74jxEzJB0UDyYzzOI7ks4IVL+PCuKVWgJ8U3ufTPB8LBJ2t5N2y6YHG4L5hLpwoIWqfeJKuCL99CjZzDBwdbEL2WOBgsIq/4reDBQav0jC42r978ih4nyzsLMiPC49lIaYoYSYmLORszWDrL40BtzOvcJ2Fm5UoKw1219OYscLh+wMpnVoeRydT7+5ODq/HyoQvdNNBpRGh8Eg+nCctGLfHbZHjffBZ0IFg9zodXzoULLA6NNYcBkTHk3FiCyKdR8L0bdKkiep40RDT4aXgoIBheaLTSGFIA8/WdqYhnTKmGWFaUKDTKBKmO6/HSputv3Rw2UrLMdQUCHqrPo/ntQnPyQYN3j9bCOlMsWJjrxvjRSeHrYXpqaRZ0aZ3GFlyeB+Mk/5uBGE8+Tz1eKYH5jVWYOmFlQgdTJa/5PmcYcx3rIzo8HAyDg4xYmsjW6WY/9gjrb8IzemumY4c8sZ0JEwHLnRiCSt8iiI6yHQo6VxwyE3KYV/MU6xs6bwyT1CU8n0vjnnXYdrwOdMBZ9oxf+jpzvzAa9JBZcsv05BxZnni9ZkH6fgynZhPeZ/MP5xggc4se1aZR1nh8Hg2MOjClvfICpuOim4HGQcOn2FPTGowT7DS5/2wjDBPMn/zebMBgJU4K3TGg3mMlTwFAVt6aQdYdvR3ax4Fr8VnxjR8HPjs6cTQ9vCeKRAYXz5nHeYR3j+HwFGkUogk/xA2051D0HgM05qL/g4j4TNjPtLrEC68N56TeZz5iQ4dBSvvm3mEeYnClHmHtpL3xetTpHAEBs/F45jvGMb3zng+Ckeek2nMa7JMU1QyfnTeWc54LM/J/MHj2ChAB0O/Z8aX52WZom1mHqFdpXPC89BO0Ymm8KKNoAvBuLzM0C7Q+Wc9oTdwpIR5nc9Ld/B5DNOSIpvPiOnJMML6ic+G9Qfzvm4rKFSYF/Qylha003S6U9aRyWFZp1hg7wR7vXlN1jmsC2iDuJ29jixvjDufPx132inmCTbK0FmnXaDTz7LBfMUyw7qI9onlhrZUf1eHZYl5l2nFe+c98pj7fBYBbRHrTF6ff2nvaF9or3h+7s/z8vx6/BlGW8iywPRkAyLrRpYz3g/zZ/369dU6kHUz7Q3zL8/HHlqKDuZ5nkuPI49lfcv75f3QTrFhgdeiEOT12aPHtGB8mM95DBs3WE6ZPjw392H60RazbuA9cX/6o0w73hevz+8nUWzyGJYdliWmD9Ofacd6mHmMz5aNrEwfHsNz0L6xoZdpzYV+EOND2/cywftlgw7tKuuD9PhwaaGLyUfVCwZhPB8t3x8BXxTjxVJzUP9NeCvMvEy4x60Q/22YyZmp2bL2OLCw6kMuVBQzEDgbMN9FomcjwCmTKBicKEFUuKKAGCAWlhOXnDA4Pd7HLiUSiSQt2GJHoUYhJZG86rARg8IkpTihuGXvJ51kOvt0XOmo08Gn4GTjmC6e6LzTj3qUc0vHmWJU7yFJDTredODpF9EfoKOeXJDQWaejyGtR2NOHY88DHVHuz8YRrlMwUHhQpNEZ1+PGhgs25nIbxRudcgoKnofOPK9Lh5/CXBeAOhQJFF2EDTpMFzq+yWE448h7ZeM248hGBsJeFp6D989tjAvFCNOYack4UXDw2vQFGXemF7cnjyOhiKIPy3vm/emNi7wG/S2mEY9jAxIXPl+KPD1uPEY/F9NBPx/35T1RxDAtuS/Tk3+ZV9gQRl+O90Rhq/cO6XmBaav3OlHQ8brMHxRHPDcFlL7vywLThY1jzKccwcD0/CcwjyRP07R4KkJI8vjQgWBrHF9kfxweEELEEi1y0CIge3tV8EgkEsmzgj05bHmlY8EeEjoCEsmrTlpCiFAQcFgle5HpclHssKeFzn3y3p+nKYQkkv8i7EVkz19K8fwkSCH0gsPuZzoRHHv8OKQqhJLgo3x6w/ckEolEIpE8mocJofQihZBE8vRIrxB6eGmTPDM4fvtxRdCjkSJIIpFIJBKJRCJJD1IISSQSiUQikUgkklcOKYT+Y8iRjBKJRCKRvHgkf99HIpE8X9LrL8t3hP5jcAwxZ1ORSCQSiUTyYsDZyehO/dP6mVOcP0pQcfYxvv8gkUgeDt+502cbTAsphCQSiUQikUgkEskrhxwaJ5FIJBKJRCKRSF45pBCSSCQSiUQikUgkrxxSCEkkEolEIpFIJJJXDimEJBKJRCKRSCQSySuHFEISiUQikUgkEonklUMKIYlEIpFIJBKJRPLKIYWQ5LmRkJAgPxArkUj+E4SGhiIxMVFbk0gej4iICMTHx2trLz8BAQEICwvT1l5+IiMjERcXp61JHpfo6GjExMRoa/8uUghJnhvyK9wSieS/goODg7RZkieGeedVyT++vr6YNWsWpk2bpjYgvApI+/DPeJ7lQwohiUQikUgkEsk/5tatW1i4cCH69u2Ljz/+GOPHj0dsbKy2VSJ58ZBCSCKRSCQSiUTyj7h9+zZGjRqFkSNHwsfHB3nz5sXXX3+NwYMHIzw8XNtLInmxkEJIIpFIJBKJRPKPOHr0KGbOnHnfEKesWbNixIgRuHDhghYikbxYGBT5trrkOWE0GuHq6irH1Uokkhcetmh7eXnBxcVFC5FI0g9fpmd95+7uroVIXib4sr+TkxM8PDy0EMnjwIkS6AvSxv7byB4hiUQikUgkEolE8sohhZBEIpFIJBKJRCJ55ZBCSPLSYIkNx82AcFi0dTsKoiPCEZFg09YlEonkKWM1ISwkGJev38ala2K56o/rof/Nb8YYo0IRHGu3ookRQfC7Hg6TuiYwx+CyuLdbd+KRaIzClcvBeNwvpyRGi/PH3G+lX3VCA27i4tXbuHIrBLf8A0Ue8oevfxgSzPLNhZcGqxEBt/zhJ56t341ghGk+Sfzd27h8KwpmdU3yPHAcLtB+SyT/KhaLRR1T+7TeEbq5fhre/G4L3Ks3RMUsjvZAxYwVv0/HIUMp1Mgnx2ZLJJIngx+A5vtBjo6abUmGEnwRw6YsxKErEbhx/RYuXLmALXt9cTvYBWXLZoeTtl/qWOB/+Qr8TW7I7v383z86+ddETAosgddLeiP09A4s2GtEuWr54IFEHJw3Bz/sC4azU2bk8gzC0uW+yFenBDJrx6aHs0snYvzt4mhTylsLeTXgO7Gs75ydnbUQDcWKw+uXY92pEBzZ+DcmbveHIToYhwNMKFkkLzK6yfbq/wL82DK/JfTA8xXYzNHY9Pc6rN1/Dr7XAnDk3C1EGHxQsUBG3D68ActPO6F8xZxw0/Z/FTGZTKov+DzewZSTJUieG097soSba6ZiqJ8TMgV74fMRnVFOfefOghVzpyO8fBf8r2pGdT+JRCJ5XB46WULQeQxYdQW9P26H3Jo3Ex/si5+GLID5qwH4vkoGe2Aa7Fz8J3yLtEG36pm0kOcHhcqf3l0wvlV2LUQnAMP/txFvz/oMpbWQJ8F32UTM8uiEia/l1EJeDdIzWcLdjVPwaUAzrPmspBYi+a/wsMkSAo+twcj1Zgz67k0U0Nyd6IhIeGTK+IhGklcHOVmCRPIUsFoSkatsK3QpEYGl265rofdjC9qDLh37o/UHA9Ck72pEaeFhJ7djwpYjWD5iOBp3GoBe846LnW9jwGeD0bTTGPyy9QaSBteZwjB33HA06zwAbT6fCTkpqEQiEQYI8fFWbQXwyFkK3/arhN0z90L9gopyC5OGjEaLLgPRvOuvWHkhUt1v68R++H7NeaybPBr1xu5RwxB7G5NHDhM25mu83XcBrthD7+PO4bUYu/00/hoySLVZfZdcFKHX8GWn/mja+UfMOhBg35HEB2Lq6OHi2oPQ4tNRmHzk/g9cLhrdV71W00HbEOPhAr3P69rqKRixW+wbfROTvp+O3VGX0OezERi3LwYJpzfi26WntT0FgcfQu/dQNOs0CF9N2oG7WjBZMkY7/4CtiHR3huNTavx62Yg3WWE12wcihp7Ygs+mbUVSS/Xt4+g5cgVumMxYt2Autu0/jm8GfYOmXb7B0OU3tJ3s7J87Gk06D0STd8Zgo17JSZ4bBncbvKzOcEuW7X00EXRm8XhMOCrsRsI1jB0xCs27DEbbT7/D25+LZ/v9BkSpY+bi8NfP34tyLWxHl0lIVuokTwP2CEkkz4OEhATFZrNpa/+cq8vHKz3XhSuK8aYy6PtflJ03EkWoVVk+Z4oy82iEus+NLeuU0+ovRQlcPkmpM+aw+jvs+EbljY4DlfWxXItS5ozoo5TssliJVjeeUrp+PU3Z68/zGZX5Y39UZp4ycouiXFuvdOy9QvG3r0kkkpeUsLAwJTGRNiAVAs8pX09ZrlwOs2gBOmeVbl0mK0fFr8SzR5TNwdr2wCPKBwPmKGdD7et7ly9WZh+PVH8riaHKjNGTlb8ua/ueWKp88N0GJdi+lsSdg8uVlm8MUfapayHK5EE9lRIfrVDXlFsHlQ++nq2cvmtVFFuEMmPgSOWnvSH2bWLfEX1HKrOOCFspWDiwm9J/zR31txJ5WGnwdj9l+Pa76qrfwu+V7rSpKoHKqC/mKxe1teA9S5QvZh9Rf5tvn1YGf/+ncsqkrirnlv2uDJh/Qv29bEg3pe9KLfbRR5TGb/dVvt2mXe8VIiIiQomPj9fWUufGqp+V1tO0Gir2gtJj0CLljJamJ5bPU8auvar+nj3gY6X5yI1KmLoWq0zo/60yfoc9jU/OGKN8tUJLb9sp5a13f02q8yTPjqioKCUuLk5bS0FirLLy12FK0yErlJOXg5UYUSx1js4YpAzZrfkTOpYQ5ZfxM5UN1xPU1b9/GKVM2B+j/lbCdyhtPl2oXLOvvTRER0crMTHaPf7LyB4hyUuFzWoGXPOhU9ksWLnjrAhxuK/1sUCz15D3wkEsXncA58weyBAbC7bhOlgs8KrfHK09uZcHypSogI871oI6it07N6oWzozQRBsQdhDbfB2B4NNYtWEvll+wIZ/jFVy5wx0lEokkOe7wUdTOIriUrYbmnjexZM0ebDgSBHdnZ9y1sLk3EXFGExLi7NMOxFw/gEM3HRB37RhWbdyHJTcMyGq9gZspPsyvCJvl3fQ11FHXMqJCkTL4tHNddQ3Z8qFCHm+ECONmvHoAl1yr4cO6+lC37Hi7VXlEXwkUv6/hXEBV/K9NNvumDNUxroUn4kz2fgiDg7CfupegJCBR2NcYbRXCrjpqGy+cOY1IkwN8dxzAys37cDjcCHNYGGJxE6f9q+Lz9jnU/eBdDT+29Ek6v+QheBZHu0yB2HYhUayE4ViAE8qWyCp+i4eavQg+69hMezfLE2+/VRlRZ6/CjKv4fZcFRTz8sXrDHqzeHYkSPn44cVXdUfK8cPFE+6+GYmx9D6yZ8RPen3IQN2PsY0wMDo7CR1F/JrH7z0UIz1sfzQq6AXEH8fcJJ3jGXhA+xx6sPG5BCXc/+AZpO0v+MVIISV4uFBoXA8q9UQdZT23FnDPR8HZmNudgjzismzYfP27wh5OPG5wdhPURC22QTVGQ1dNNFUWsaExmF3i6a5W11QqLzQYHJ3GOKwG47ZUFmbwNcHJ2hItzZrTu1AHl5OtHEokkJWG3cCZzPhRzAq4f2IFBo7Yj0ccdrk4O6nh48a+24z0SrwYixDszMngKGyP28/DKgzYdW6F4irkFaLOyeemvV9NmucHb457NstoUOIrjzdeCEOjpc9+L2E6ejlAShQgL9oevSwZ7g4+Gh09mjhTR1tKDgoiASBgzesLD3RFOQjxlK1QBb75eHV6BQmg5+cBH25N4ZMgozHTSQGNJmjiiSdPc2LvbD+bIIIQ5uqJ4DqakTeQfR7iJ+kfH4OmNTCLMyT8AF50zIZuoj5ycnWAQ9Vidzh9DnEby3HFG1RYt8d3YfmjldBwzV5xW/Y2UIgiX12PWxTz44O0S9veHrvjjuvA5Mgufw1k8U0ebJ1p88B6qPs4MJZKHIoWQ5CWlAL79rBgW/7wZ1zK4wcnASuM61u+1oHP/t9GxfmU0rJBZuCH3KmQ6FvdQhDOg/dRh5Z0zE/K7ZUCj2tXwerPaaNu8NppULoos8mPzEsmrjRA2TmwsSSIRq3/YhGpd3kBmhGHvzpso/G57fNiwGpo0KY88HhZhc7ifsDXiX0cn+2vTjjkyIr9PVjSvU91uY5rVEraqIDI+OBnVAzbLfr5kiACnXBngFR2O5JN5J4QZoXi6A1k94J4QAvvbSnY4DbgDG4nSjQHuGTyRL28JtK1fA21EnNuIONcpIpx2H1e4GUMQoe1JQkNC1Nm1JOmgck2UP7kPS48FwcWrIPJoijJOiNio+KRJzRF18QZue3jAkDcD8pgVVKlZFa9peadV/UrIKydMfXFwyoH325eA5aIf/MXqfUUt9hw+GXMMbw7qiEJ6EcmZGQUcPVGvVjX7MxU+R9NqJZHdVdsu+cdIayR5abBZzDBZk3kC5d7Er42P4cffA+GkOhEeyJzhLi5cjsbdW2fw8x8nEaPN5W+zWmCyWFWHhA6F1WyB2aKJJOFsWMxWmE2JQl+1xutZjmL4r9txISQMl6+cxNwFx2C07ymRSF5FhI2wxUfj6vXbuBUQgtvXL2DGD5MwNe/bGF6dOzgiQ4ZEBPvfRUhwILau2oBt5+KEILBvczeZcP3iRZyPNCFTlbdQ27IHI+bthV9IKM6dO4aFy0/f+5aPhkKbZdYbcoTNsgibpds/xQazsGEmkxHu5TqgocshTPhjnzhfGPwuHMCyE1Fo0LiEcMqqoUfTEIwfvxN+oREIO7oOow7Y4GSwn0e1qZZ75zSZLFqvOa/PXij794CqNGkMp92LMW7XBQQEB2P37v3YdOAm4FUb/VrcwfgfdtjPf2w9Ru6zwMkhmZ2WJMH0ThR1zT0K4Z0WIVi8zh/5a5aBOnJb5BfXqFtYt3YTjlyJxLWrmzFxYyI6vl5OaNIK6NcuHsN6LsKh0HAEBvtiyqQdiFaPkzwvLh1fhbHzToqyESLswx2smHMU7rWqoKDYZhZl32yjIbiDmSMWIKZqezRX7uLazQBcChJPLkdTvF/8LIaP24DTd8Jwy/8sps88eF/DhuSfIb8jJHluPO3vCFkT42HNXAjlct0bBJK1SAEgwRXlyxdCXp/sqFkoDstXH8D+m674+J2qcPbIgqolskIxJyLRLTPK5s8Cg3AqTEYz3HPkQuHsnArThnihgXLlzYVcXs4oVaM6lKsHsHH/ZZy5HIbyr7VEieRjPyQSyUvHw74jRCFiCQvAgVOXcer8JRw6E4mKb76HEa0LadvdULJYRlw6cggbj91GjlK10KRabuTOlR1Z3VyQPU8GhJ0+ivUB7mhZLicq1CiHmAsHseXAJVwMiEOlFk1QOOXQOCFyTB7ZUT4/x+UqSEwwwSt3XhTK4kqVgjiTAfkK5EZ2dyeUq1sN1itHsU4IlfP+RrT8uAtq8nUTQb5K1eDouw8b9l/AXtca+K1dVsR65UeZHK6wGuOgZCuKsjnY5W1FbIwDilbID17RZjYiUbu+g3tG1K2cHRf2HcaOY5cRaPZE7XqVxb0BuStWh8vFfVjP87tUx7Q3siHWM584f/LBei8/aX5HKBk2UYclZsgv6ql7061n87Zg53kPfNaxNNSJmRULfC9dQoHi5RF4fKfYZkL9T7ugeT57j2L2snVRyHQUa7ZfxtGT15CzWUvUzCmHLDxrHvYdIXdXBVf3H8X281dx8qwfnIu3Qt83iqk9EeaEWDjnLYOixgBciLEggykEu49fwulzfjh0xxF1y+ZBqbr14HZb+Bx7LuP42QCUadcWZV6y4fjyO0KSV5Kn/R0hiUQieVY89DtCEskjSM93hFLj2K/fY0GBbpjURlOuignzJ/+EjG8MRpsC9iDJ8+dh3xGSPBr5HSGJRCKRSCQSiUroqe3o9nk39ItqeE8EEUVBfFwsYuPvvd8qkUieHNkjJHluyB4hiUTyX0H2CEn+CU/aIyT5byB7hP4ZskdIIpFIJBKJRCKRSP5FXhghFGuy4rN1t7Q1iUQikUgkEolEInl2/PtCSAFCjQp2Bpgw+UQMPlhzEzuvRWPKkWDM2Rmg7SSRSCQSiUQikUgkz45/XQjx9b4MzkDtnM74X1kP/Nm2AHzcgL9uGMSGx5iD2GrE8Qkt1DGF9iU/vly+C/avGqSNEnMDX5RwQaeJBx74LoPOxRW90P79AbguPw4jkUgkEoF8nVYikaQF7YO0EU/O80y7f10I8Su68TYDrkdbcSDAiKthCfh+fxisHlkAp3S+NJ94HePer4qOh99IynxK3DLEDG6E2t9c13ZKHYN3QUz3M2FR39pI65VXZzcfZMzgDSf5BpVEIpFIBHzRnd8JkUiehLS/QSV5GeDz5WQJkifjeabfv27Vh+8Owre7AvHbkWBsvBKB7/YE4US0GzJncIWHuwt6bbiOz9fdwP/W3USreWcRFm/WjrzHpbU/Y/nNWti4+AstROBRAwsu/I7Q0a9hm1g9OfM3LD0cbN+GO1j941xsuxkNmMKwfPYwHEw2Cm/3tE/QuEkLNKzfECvFIR7OdkHmoNqsYEzq3BHjV11I0dvkj5nduqBp06Zo+nZfrPON0cIF5gDM/OY9NGnSDG3e+QT7QrXw63+ipQhr2qQJ+kxdjyht9su9Uz9GQxFWv8GXOG0PAiwXMfTLt9G4cUt8OXwpQhiWsAuvt2iCJo07YOSCw0hQd5RIJBLJs4azGUlHR/KkcDYxOePgywtnA2RjieTJcHNzU5fnwb8uhG5FGTHlTAJOWnNid1xWnDfkRp6cORCXCBQsWAiLovLi95BsmL0/DAExRmTxSPmVXiOunLWgVvOOKJyyTnL+CH1b+OLQuWhc2bIJe/0itA1ROLRiK07diRcCIwb7ty6CX5h9y5mfmuGj2RkxcM5MTO9THGfP2gWQQfyTRfxd/79cGB9RF2+2KI7kl4vbthpXq76H6bN+Q9+GRvTs3gu+6uVsmP1pRyy6WwujZ0zHwHauuHRTBAcuQpkik9H811/x24iPUNBL3IkC+M1+HV8dqorJf87H0s+MqFrkFyFwYvHHJ4NwJV8XTJ/wHZrljkRQzFUMqvo1iveZgdkD30ZW10jcfVAjSiQSiUQikUgkknTwrwkhm3D6/eNsmNu2EAaWd0LAnbvw8nCDh7sbzIoDjFYgEY4wRQSjoukSzvUsijM9qmlHJ0NJwA2/67jl5YmUEok4+ABHL16Hu6cnXJPGtjnAxc0Vzo5i3eAIF1c32Bv29uKr/ocwbs9EtChYACXfmInvmgmRYxL7Ozli3vs50SVhHQI29EJh9/tVl2fT7hj3SWMYFFfUrtcSpdwdcDzcjMSrEzB/Wyb89FtP1CxaBHU7/YZPqoTht66jUXLifPQtVQLF6r6PXh++hhyOe9Dtf/7o//0HyG42w9B+ML506IXfL7ohNtILBfJ7oljl2ujw+eeo6B2GazezoXxFHxRq8S6+7NgC+VNLAIlEIpFIJBKJRPJI/hUhxFeg4i3iX0XB2VATBtXNg4quUQgIjYLJJgSQWNi5cfXyFfxSVcHRLyuhTK40Jk4wuCJLLhcY7oalOtlB5FWgboVSMFuSD2QzwMHgIP5NBnuoz6zBPuceqJ/i+00Orp6IWDMIXy4oib0LXtNCk2NF0KndmPjpW3jj04/R+avvsP1CGLy8nBGz+QB8S3dEieQpG3UV268XQaUGmbUAjVM7sQN3MKd3R7z/ycd4t80XuFnjc1TO54R3BtZD8NS2qPv+TGzZHyh2ro6R00thXosyeKPH3zh2LdJ+DolEIpFIJBKJRPLY/CtCiALE2cGgLly5HBqPm4ku8PDJgIjYRBgtNpiolqJi8GH1/OoxaeOB2s0r4MaOBfBNqYSCRmH0ifpoXMwFRqPY000fr2lFqCUeCby+Dt/PyZ0XGcw3kFJS2MxGeNb4CN+8Y8I770zHXS38HsFYPGA01mb+HGd2bsf6PX/hrWoZYUwU95knO7LFhNz//k4GL+TxTEB81H1SDMiVCZnRAotXb8K2HTuwc9cOrF4wAzU9gax1uuLPgyH4PM9+DO/1FbZFASW6/IRdJ/agUsAU9B8xFbfSmvZOIpFIJBKJRCKRPJRnLoQ4I15oooIjd8xY7BuLEhmcsOBCJG4hC85evgnF/4zaExRPYWJI34wq+Vp9ji4ZDqJisW+0EEHgclQuOR1DT+xGFbGaM/9NjFywVd0Usnkmft+/B1ZXjiVTYLNYYKOIyNoL3YstRpfP96j7wbYGiw4DrgYjbFlLY8CSA/gyegiafLzDvj2JeIREWVC7dRN17cLMb7Bw6QU4IhEZmvRCycuD8M187eOwoX9hm19pfPWZG8Y2+gRX1cAIHD1xHgk5eqJP2T/Q6uNdaihZ+O0fiI87h793HEQcvPDhD4NQ0f0iEg9vwuSD0YBjKQwd9jqyJwYgXgohiUQikUgkEonkiXjmQshgEHrD1YB6uZzRp4oP1viF45d9d+AZfQt/NXHFtb7VMLeRO8KvXQES0vvhnrzot9UfgUO3JH1HyLFQZ5yMtsDRFoLgwDA0+nknfg8ZJ7a54pMlOTDwq67Ia+EAPAdkyp4XXtr7NaMuJaLNlQb28zj2hXsFwNk1E7J4uyBOiLjuGwPR7mITlPjgVwQnCY9iGLfgQ2z6IJM4LgNGX2+GXkPbwtEYD3iVwYqz2xHxQwH1nJ6llsOzGFD8f2sR/HssiqrxzYuRq67AKs70zVkb3r7dyH59sfxd7g14eOZE2MKByMAwz4YoNNUXrzXPh+tfllL38flgDz77aRpKphjSJ5FIJBKJRCKRSNKHQfmXv2LU+PezKJHZFWOaF0Qm93tTSU7edxMTDgTAf0BtLeQJuD4XtTpOQe4ab+D7sd+hzGN8n1Xy72M0GtXpJinuJBKJRCKRSCSSf5N/XQhdi0hA4Uzu2to9GI27sSZk95bzsL8qSCEkkUgkEolEInle/OtCSCLR+beEUEKCCWFh8XByMMDJxRFublyc4eSkv5MmhZhEIpFIJBLJq4YUQpLnxrMWQgEBkbh7NxGFi/jA0cEZnFE9KsqM2FgzoqPiYRIBismMnHndUKJELu0oiUQikUgkEsmrgBRCkufGsxZC58/74/Tp23BzNSF3nuzw5Ed2XTxgg4u4pgcMcMKdO1Hw9k5EuXJZ4OCQvlkLJRKJRCKRSCT/faQQkjw3nrUQuns3Cteu+ePWzSBERcfCZgWcnJzFNd3g7OIKD3cfODq7o1TJbChYMJN2lEQikUgkEonkVeBf+aCqRPI8yJYtA2rUKIsObzbDW2+1RstWTVGjZi0UKVoGuXMXhcHBDGfHSGTOpM2lngpr+hdEhyXB2pody+2D+LB7Z+y/A+z/rhSqt/8JN7Vt94jH8rfroeRA+7esXh5uYvz7zbApSFt9BiQGHELn4nnRf+VFLeTpYd3eVQjvjOgwYB2itbCUJAaexKhvP8O+2/b1ef2qYPpxfujs4Vz89V0MWhlgXwk7iA8aF4WDsxs8Pb3glTEbsvu44JPF9+cllbij+LCIAY6OBhgqDb//Y8yCq390EnF2govBgPrTrmmhaXB5otqw4OnsBEO78UjtU2OBi79Cg09nIFBbvzH/I3i4u6s9prxGpYkXtC3AnT/qqOdzyNcc80/pKRaFJYObinBnOIhtA45pwRprPhf7GxxhKNUNF/jFAhJ/Fj3blVd7XTMUrIo/r2vhyYnahpqlWmFTygT4D3F52QT06NUTPQaMw6YzKZ517Dn8OGX1fR/w9ls2HuuTp0XobvTq0Qt9e/XC8D/3IrUPSiScXYGpay8BJj/8MmYIevfujV6jZuJ0MD/IYMcWcQ3zx/VEzx49MHrBOS1UELoLvXr2Qr8+4pjJqxFt0cITQ7BlwQT07dsP/fv2Rvdhk7DnUlolRNjAoKNYvW4PIvTnK0i8sg0TvhXX7DsUf+7UykFyoi/i90kj0IfX6NMLX/6wELfCk52ARBzA92Pm4ooer9SwheCv8eOw8XyYFmAn2m87fho2FsditYBkRFzfjh/HL8atyBTXewHZ/9sI/LbxEeX8MbiwcixWnLdbgqBdv+Lr/n/gaZjvKN/NGNn7BxwzPto2Sh6DgC0YPnEpbt8rziqxl7bj762nYXyg68KG7bMn4VSEtpqCu9vHoXv3Xuj1zTQcD7zfuAbs/BND+wp71e87zN95TZwpGaYALJ8xFeuvxmkByUgIxabVS3Diln4+G06v+hEDZmxVbdaVdT/i66+/Rv/+/dG7Z2/8bf+A5osLe4QkkudBQkKCYrPZtLWnS3R0rHLlynXF3z9AiYkxKpGRZiU42KRcv25Uzp9PUHx9FWXzptPKxo17xb5x2lEPkrjmM8Uz3zfKbW2dnPurq9K0Tj8lQPze8AEUOJdUfjmYaN+oYTw0WXmvZjYF76/VQl4WLis9q+VQFt3UVh/GpfEKyozQVh6CxV8Z+EkX5fsdgVrAs2KrUgNVlG3aWlok3NirfP5+fWX9Vfv6uPZQhu1OO5/GXNiotMwr8oEwp61nB2mhKYjYpjRs01fZHXp/PlEUX+XNot7KL2e11VRYOWiIYk/uCGWIK5TPdqsrqRCuTOs9TYlRf1uUFR2KKlneW6au3eO68pojlGItfxC/7Bya2lFpMy95DrcTu7GbuKe37Nc+NU0p0ugN5VSoopgDA5TVc+cpUepeV5Q24r5/vqiuKMFTqyjI9ZPCEhW77C0Ftb9VwwO27VDW7j+o/jZe/0Vpnr++siVEXdUwK+uGNRDXc1eWJGhB/ylMyomlE5ThS05r6ymxKmeWTFCmbfNX18LO7VDGfv2B8v67bytLLqtBKn5/LRMpSmzK8T9HKqOW+qlr94hWFgzsoeyJFiXxwGHlRoQ9sUJOLlKGjvhD8WfCW8OVFZOGK8uOR6jbVo34Qhm/nk/RpOxZtl2cwc6Zv35Uek/WMlPMZWXW4pXKzUj76sNYN7qL8v4nHynfzNqqhJvsYZbgE8rPYycrx0X+UIS1nPrNQOXvk+rKPYL2KgNmbddWUiNB2TlziPJF1zHKWbMWlApxV5Yo/bp/o0xbsFNJHt3wk38rgz9/Qxm2ipY5OSblwPSvlPdHLVGu3DVqYS8o0fuUb4ePViaMnKX4aWn7Tzk28wtl+pGUducJiD6pDB/1h3LTqq1LngHRyuoxXym9Bs1Qrli0IJF/F33TUfng4w+UEYuOK8mf5KXVPyvdu3+sdOs3XDmSoriR2KNzlK7frVZ/R51ZpfQZNlMJirXXZVd3/aGMmb35vvMl58bhxUr/zp8ri33tNcp9xAYpi+b8ouy5HK+uXts6Uflm3BIlUCu3RxYOU2YftNsfxXxcGdS1p7IjZbF8gZA9QpKXjut3zmDx37OwetVKHDlyENevX0ZsbAISEqwwGhUh/g3qPHEuLq5wc/eEk6OT/cBUcGnzOdpgBjYkdU7YsG/9Ebi8/jZyizUHDwOKlC+HfYvm4V6DTBzW7jgPBydXwJO9TRHYvmcbgmPtTTnxd8/jyO7TYi87l0/txJFbbEcJx+Y5MzHtt2mYtnAbgrTmYGP4VZy5cAQn1q/CzGk77D0ZiYHYtGwOfp36G/7acAqJ6p4PcuvgAmzw069kxJmlf+GK3ogTfALz92vN0ZZgbF3xO36bJq49fyUuJN1MHM7tX4eTxw/jj5/W4JZNgauLCxy10Yy3d/yJ+X8zceKxd90iTJ06FYvXnkTI3evYtXKPuPUjmLR8FY74M4YR2PbHbPv9LdiC21q0/NZMw1HfKzi6YgZm7fMXcYnA8aN7cCfevp1pfn7nQkwT9/rbb9Ox6YbeJKbg6u7lOB8ajZ3zJ2HKtBX37i0l0QHYvWQdguGAHWvW4mRwBG7u3ofzd/Q+kyic2HgYt8yAs6MjnJyc4KDdo6OTuF99JRVuHTuC6j/vwuy3SsHblFqLswUb5ixA8UaNUDvLvW+nkZNfN8LFIdHoUVYLSIX2Y0cjv/orI7oMAFZuuddjcz+Z8OXPX8L+nWVHdBjZFWFH9yXr+bJibecPcembgehgMUKP6fVrl+Dh7qGt6SjYsXo7Plzxm/3aFV5Dl3AvbA++A6dcudH24w9h/0xbEbR+F9h76K74reCvOcfx/ZG+4Nk83xqE1gdOYrf4nbtJI7xeuyYPgGuWN5C/xm1cvHKv6T5oncj3DkXwDorDrD/e5FgjsHfNPJHff8Wfyw7Ze83unMSfv+9L6kGL89uBmZvO2FdskUn7/7H0QFJZe1Yk3jiMnbFF0f+d8lpIChL9RZ7LhMplOQTXhODAONTr/S3eKpkTtmTNsMXffkukKDGgRJn8CAq6rK4lEbITJxxbobo3ULRWdRTI6KYGZy9aAwUyxME/xgJz2BHcCMuPGpUzqtte+7wNzAe34KrZGfXeagxxqEq5+tXhdPcaQrmSYER8fLzI9+qmtAnZD/98X+Hboe2QU+R1m1osFFz3OwXnnJVQIgvX86B185K4fuwM4mzx8D150Z4Ho6NgsaTdexC0cz2OFSyLmq7O97dMp2DP0sOo+9kncI84h6sB956sYrUhT6W6UHYuRvK+ZFvYaRy/6YFcGYW7k1reeoE4u2wLcrf8ErULBeHowXu9ataEKNy4HYTE8Js4uH8v9h48iYCk3i0bgm5cRFh4OC6cOIA9ew/gYkCS8YRB1G8OmqeXEOQL36B72xB/G4cP7MPevXtxwu82Epk+5js4uns39u0T1zlxQ30WiikON06dFfXnXZzYsw++wYlQYgLhdyvk3rOyRIlnfRD7xLn2HjmN4KRHY8TtK74ICg7CyQO7ceCI7zMvj/9Vrq1ZhrPVG6K6SFWrXuXc3IP4SoPQ/8smyGy23MvC8TdwIao0vp4yBOUSTVpZTE4Ydm7zF2W+mbrmU64BmngGCH9APP+EG9h3KQHtOzbH/TWSHWvIeey+FIL8RYvDU0mlNHKUgKgnXdxdYL29CvN2eKLTF+8gl2Y/DKK+VKxa/nSqjBbl43HtRhpdVi8AUghJXiriYuJw5Po2RGXzFw6sEzw9PJElSyZRwRsRLioKB4OTcDEMuHL5rBAnm3Bo7wZRQIXznSbVUK9xNqxdd9S+qgThQsANtGpdXV1NVFxQ5b13kDVsG3Zf08ZzBJ3EpltAmzZ14OYozFb8VUyc8BPWXopSN59f2Ac13hyM03e4pmDd1PexJVg4NIdmY/bhG4iMDMa+P4fhze/+UPePurIRY7p0wLjVpxB41ygKbRzmj/sOc3aeQ0RYMDZPGIIhf6U+lCJu50i8+bMWd8suNH/nXfTeaFdYQWu+xPfbaJzisaBvD4xZeQghEeG4eGAB/tdnGK6o0Q3B1E5t8O3MrTh7KwomRbGLSHrBfuPQqNN4BJmjcGDBDxg9dycChKN8bsMyHAg1IyJCnMAUI5y5EMRYhSA89AdmH7iKyIgQHFw8Ch2/maMa9fjIEETHJSBG3EuQcOQQfBqTJgzGcW1k0anZ3fHF8OUiPpEICzmJQR++hVVXaGRtWNe/I1p3/hHHwsw4MedztBywzH5QChRLAkJDI0SVHI0g/7tIdL6L1b2H4M9T9mci5AB+/ewHbL6TCEfHxzOLpd//DiPeqgbL3RgheVIh6jK2XQhE1XqNcb+f6SsErws+K7wbPdu0wmttemKL6pWmhS/6zSyCEb1Ka+uPIOwGkDWTJliA0JVd8WN0d+z+qpQQmfcEm0PEDfw16C107tAe7Wed0kINaNC8ATYOn2tfDTuDHW4xKONtl1lJGLfg5x018Olb2cSKAW++VxUz++6zbzu9Elvy5Ydd/twjft9snItuiYbVtXOZfTF73mZ88n5fFPR2xAO+spKINaKyn7jqKEJjYnBs+kB0myHye9Z4LP5fQ4xm8bX5YejAoVjuax8utU7s/5PY/67Y/8TMQfjy1/P3HLanjg23rt9Edh8D9qxYjlkz52DNHt/7hrWFXfFDXMbcKJ7ZU6y5oHSz11End3ZYjeY0fPNEHD0RjvLVkj9rC04sP41iHRvgga/tWUyiFAMZXJxgvnUHZiEo9HkwFa9cyO4Ri8TkESLxcTC6uwt5TUSpDj6LhXNmYs4fi3HQ/17+uI8cdfDF+zXhERZjF9Kq82VGTLiCDAXzgHdH3DJmhIejBc6x5zHzx3m4zMSnDhFO3ezZczDrr024Hnnvzq1hp0QZMaNj09oiNW1p6xXjAeyNqIJGFQqhUjZnXLiZbHiczQRj3vpoXz4E23fdc7r896+GqWxblMqS+GDeepGwXcHu27lRv1ImlCxXCcab55Ma18wR/lg/dwymrT0hbGUcgi4fxJ9LNiBUbcdRcGDRaExZshXXQ2IQG3kVy+b8gTNhKcZWCe4eXoRFh0PsK3G3sXbmImE7o5AQfgu+ly4hXJwv+vh6HApMEKInAifX/IG5QpCJahNxQihbLWbERUcj3uqIuKv7sXT7cbvNs8bh8LKF2Hz2OmIS4hF05QgWLFmHULWVIgobp/2IhZuO467RKszCZCw8wIYTSXISb+3E5ls58XmT8og1JatJCjTBpx0qwyUi7v76xaMg2r3fHPlFeTHaUikxCeEIcCyIMgX1+swLObM5wJxgQGLQBZgtrrhxaDPmzpyOv9YeuW+o+KE1K5Cp4psol8cdZmvqpdHBxRPGa1vx84Jb6DL0c5TSKxpicICzm2YNjBdxMLA4qlV+cd/DlkJI8lJx5fpVhJ1zQnx0YcQ7O8Pd3QNZsmaFTVSS/v5+OHv2CKbN+RHD/t6GRUGeaJpnM/b+PQSjRn4D3wupv5NSu/Fr8Dly2l4p3dqCS9e6oIXW8Gszm5GxbG009HbBwZ32lvpzW7bB6tQI9Stmgkk4OvAogoZuLjh1UqgjwbVLW5Grcl2Eh9D0HIHfptJoUEX8LP0RFswcgyGDv8eilUMRevQ4/IQNcnN2QbRHSWFshmP4sNaI2b8A+8+UwsxpP+Pb70Zg1s+v4c6aSfBLpVuo1OtdkGftClAmhS8eh9IffgDbtv1izYYtfxjQpbUwuqcWYvupApg4ZwaGD/0Gv/w2Ec3DLmLpXvYWucDq7omq7/TBhMnvo6ijI+CeCcajm1D/3b/Qd8M+DHinFE6suIZan4zBmJEjMPrXwWheqjje+OIdOBZrg3E9uqKJMMbWkp0xb8ZYDBkyAvP/HoaEcydxLA6o9PE4tG1YE6/3GI3vWhVCoqiMPT29IXw6wWnMGHgO3eavxMQhg/HN8Bn4qREwf+I2sc0Rbu5A/sad8HXvr/H7rklw+3Ud/HhYCgyZi+LN7h+jNGph0FefoGaWzOI+PODurJtAJ3j4eML1MUXQPRJFiqaO/941CAxrhFZVU/S6WEJw/c4t/DzDF51/nIC+tYTALtIbqj5Oxp0L01DXIOR7voHouOEMvqLmeBRxx9Dune34YkwXddV2aTFazfDH+D86ImN4PBQHxyRR1vr7/Ti08AcMGP0mYj6viRZL7C3RPm/MwL5O22BwdIah+ni0nzgNLfLzHqw49kdflGKcyi7FioBDaK3VeXn6H8V3xjYwuLjC8NF1bDvxq+a0R2LFl62RWRxTfk4eLN80FeW0CCztWRF7qg3Fm4VyQRGOUsoO2mj/1di00gvj507F8EGD8cvS3rCs7IdjqIONZ/thZaOpOLJvA8K8OmNJn0YwBq7AhuXu6v4jxP6Tl/UD1gzG4RjthE8dG8yJYdi/6xJci1dAi0bVEL5nMVbrSl7kjWuXb8G7QHHc/zpistbdJAIwu0d39BgwAXeKt8fntQpp4YL4s/j7di60q5iy9w7Yv3wpTLkroqjwNcxC4Jg93JKer4PBEzZDAoQmvIclGAvnH0bFFrXs+2Uuhvc/7YaObVujTiUDVv70K44HpFRO97jfxVaEsyRcNGFvdVyc3ZEQH4Zwx/IY+lNflGGxKtAQg3p8hmbNG6Gk5zVMm/IX7mpdAxv/Xg63qk1RwOAGq3C89B6MlETt3wXH2vWRQfwuXS4Hzvklf8FKgUWowVJtm8O8e6tWji5j1c6caP16flgTHhQGLxImP19E5y+MUi5ApnxFYRPPKDzcblUcRIKYXLKgfI0maNG8Jd7+oCNKWy5hy3GWVUfYXHyQt1QtvNaqBVq3eR9tyyVi56YjqlhN3pntIJ6Lm7M9Z1zZvxZnXWriszavoXm7zni3VV1kF9f2LNcBPd5riaZN26Ln51VwfNdpYS88UaZuXVGXFkQjkUeq5HESudcJbhwdIM4V6X8E50KyoUOnTmjVvAXe7tQexYy3ceQaW3Yc4SjqjCJVGqB548bo+lljhGw/dp/j/coj7MeydQdQomkjZBNuObXH/WXAmmb9wnyfKsI3SXBxhEvSwC9Rx3m64G7YXWFnw3Dy5A0keOZCszZt4O77F/5cb+99Dts2CqscXkObsrnhkCjKTGqF0UE8+/Azoj5fiyztPkcxvQVEw9kchb2/f4tBgwahb48RyNvpa5S3d16/kKRhbiSS/yYxoZHI65YPFZEb5QuVQbzRSQiQ07h06TIMignHz53H1NByOO7WBHGehVGlsIIvGlxCq8xLERueYhiKRunajeDsswl+wpE4s3AC/Hv2RTFtm6LYYFJyoeP7+XDg4Ba1xWbnka3I1vEd5IJJCDCGZEKrJp4I8r8pHKYt2HXwO4xqFozd+27BuH4WVjbrh3qsTTyz4eDQyurL6a6er+HymXC1xdUmnIx8xUqgaHZeEfDdMBszVvRHDmHkuK9Txe44a8iFLK4h6OMtnFY6qIbi+G6LcBLKf4K3iq3FmehYzJ1QCf1/7Yz8a2bA79YB/JKhPt6r6oSjC1fgQtkGKJvUzJwLNctmQNA5u0OcQQjJciV1S+cMy7UzeK/Z96g+dhW+rEyXxActPymMxW2yo8mPZ2CyeNtbhuONsJqNScP2HLyz4tTI2vb7c2uK08fvwkDfyRwLo1A/xvj733IWPhGw9VdMd2+J5vaxYSolWtRBhksnwTZF1vFNX9Nazb3yICtOwlf8PP7Lx8ilpoMBhapMhDrvgTVBOAYmbVjGg04RX/xP5jOkwg0MzumjpW9h9Ft6Jq0q6D62bvwdju99irza+j0swoGsgF8WfoEapcqgyZA1mFtpMjr9cX86ZC/dDfsUBYr/99jc2BNNptO5iMaiTnXUyQ0MwtFt/sWKpJfwo86tQ8uijVFo8hr81qgIkHANg7/7AxU6DkcJ52hcuBaC2IQwXAuxDwv0ylMGNWpVQ4VS72O7b19s6TJZTdst3aug+Im31SEOysFvsbH96xh2kq3Jjqj64UT4Mk5+7fGGsyO+3kynOQFTahjwfYPjUEyJUOZXxmvZamInL4KMePO3DQgXxxzrdh41s9fGX/Rht3+Ad/aPxh99yiLGeEFsT0TwtTjEswLWuPP3VPy2ZwLKuDnZ0z5rBxxxyA4HelKlxmFw8e6o0WQJWgz5HELeImjZFPy2byLK6vtnbo/Djjnh8sz8YOGAm1xQvlET1CtXDPmLlUf7DjVwbf9O3GGyJEbjamAYSpUubN/9oeTBZ1N+xZQfeyLnlXnoMUXrXRMEHz4Jj2qVk3p67ChYPfYz7HNqiZ4da6nDXGw2RdiMe70qimKBq7MrvLQOOFPoDcz8bhSsTT7Bp1W0guXogkw58qFgwbwoWf4ddKrhgIMnL9/fAv0wbDb1ujq0e16eXnASgjhr7uxQfSBnT2TPnR8FhLNfr/WbqOoajANhMQjf8TP22lqjeWUfJJrvCnthQWSYBRZxD/dhuYz5G2JRpVxGxAtVZ8tVGLlPb8S6ZG/+26wmuGVtguJ5LuC8KPSWQ1two3ZLlBQPP9Uhly8Mkdi1xxcZs+dAVIzI/w4eyBkfiC0n7EJPsVmRMVdBFMmtN7tnRIHcWUWRo3VV4O6dCUWL3DOSuUoXh09crDpZygM2TXVs7+LUWSOKNSqZ1LuoDgEWOysGB2yd1hv/69YTfcaugcg+dmspHGubiIfJdH9C8mzBR04gPF/xpKFRjF+hfG4ID7D3uHv4ZECBfPZBmQ4irra4W7j7IvfO/cucXT0TAVlaoVohB8TFhou8akJEuOW+MvVEiDJkMyRZAlgsFmQX9bnFbEDBCjXRuE555MuVB60/6wLl4hb4HVqLb3cUwIBPKiIx8TaiTUJMRYXCmLLwiPJtzFQWn33cBFcn/wxtQHISZqcMqN3lW/zwww+YOGs+HBd3w4yd2uxDLyBSCEleKm4E3cKpa+dwJ+auqPzdhGF3w9njp+F//SYS4uI5OQhcXdjiaISnIQGRRmcoZnfYHN1FhZF6cXApWgYFbNlw8sxu/DE7GoM/KahtsWOhs1OnJ2rv24Spu5bh1O066Flf1CgJbI+zG5Cyzdvi0pXrCNy/EQGvv4MPW+TBLcsV7Nq+G292aiH2uI7BBfPh07ARahwTzbtQqUpWIbLUw4UzaqVNs/825EPLfjtEhWRV9+VyasFgIQJy4OcY4bSqYZfwfXO2JudBldb1sGfW77hQPz/KuzRH067++HPRLpSrXwnFRTQdPd3gmpiYTBpYER8nBJYHVQrPZYO4vIYNBi9H1G+cB0cWLcJVLU5F23yPi0oQ6gjHtlCR96C6bxR3jg5aqt7AcOEIdrzcS41fovUA6tTMofb+qDhwprEUVTbvPYMPvMwxSWKKWONMMDl7qE6fOJUw6vZw4QUxdurzqNLzdwRpaXP9eN9URAidRQeRF/RWbBtiRI2fNC47VQpibHC0ek5FuYaf3i7/COFETmLnehd81C6VbhynbMjjE4KIZLqHHVKZMqYYfpZERSw5NRw7vvwO14T47LRovzpUUVHisGX6m+oQJ9utOaj/1hC02xqNSR3tcj0h5g7cLJG4NG8AXmvRGl0HzsX2Uwvw6dAZuJNysH6egsgrHCEXHMXYv/Piz+kf2cOzN8VPvZ0xd9o9x1zF8XXsn9kBiycuASKWoOeRt3Gsn+bwl+2HZe2OYND0+9t+Mzb+CSNbZ8PSDVuw45wTGmVZg471m6J1q55YbfHDz107Y/L+cG1vcU/O2VH5jb+QaLRoaa/Ab8MM2F+BMSPcWhoF6uSE8Y79OjaXbKjUdsn9+2+ciSr2MWDPAEe4erjCwWZKKkP0X9yFCHAU2Svi5h7EuDRBBa0hI314o37nN+B1ah/OqushOHjZHS1qF1fXVIzXsWDcUNxp+BMGflT9nkPr4wmHwKCkFndbYiDuRvrAkz50zAlMmjQPhT6bhA/qFrDv8AAGuHn7wJ1pp4WkibqDgzoEOCEi0j5cThAbFSGcJ/fknUT34+ACL3dPuBqiceWOK/KajmHuL1Mx/be1uGEJwZZly3H69v0v/MX5XsDdDB64tXY2fps5E1P/3AslYwwOqT3XmsOvvs9gQNkyFRG4728sOOgsyl4RkVZ6zF5MLKGB8BdpFnl+B36fNR3T567CtagoXLxwVc1TtI0mvh+S9EDMiBN2UHG1f/vOKioHs/meBTdHRSPB2d5bc++Y5DjCxZkCPuXGK5j8xTfwrzIUs6b9gp+HvwVX8WyTNIuIR2q1pJO7MxyEULp3NvaSiqto8WMZTHoXjj+EjXm07XxViEVwlAvc7+zDrKnTMGv2Ftwy3sLaFetwzT728cnwdEeGyFAEJU0zF42AQGGXvESd7OYlbHxC0qyiVpsBHq5WXAlzQs0CEZg/cTJ+m/4XjgQE4MymRVh+/MGhjDZzApzKdMB33bNhTtefcDIueV4SAkx/RwhOaN+psTA9x4UVezGRQkjyzKDx+7cpWCA/MmT0QMaMGeHlpcDH3YJ8mZwQFBKMoDtRosJ2wFdZV2Fl3d/xXanN6HboTby1+0OMO1YLRqu7dpaU5Mcb1dywrs9bmJpxCDonHwtLFBb4XBg6PBdGvfsFrjf8QnW872tEKVQVbwbtQJevNqLhp6XhWLwuoi+uxPQpbmjZlDuE4EpcaYyf1kbd/dT0GTh5IhBOyWsL7XwlmzRA3PJhWKo3sCQE49Qh3zRbbytUKYEj/cfhTvGyyCvUQ8EylTF/9ErkyWFvQSzRuAmUrT9hpT7KJO4kNl8MRMXaZcRK8sqXiKtkKoyBvy9DN/e/0OS1BWroVb8ziEFOfL/5JDplXoKj7JZxEPteDNecwwhcjS2BH6a+o66dnzMd+4/4a46SqJADoxBruD/91WSt9jlaWCdi4vJ7A8bWT58Hn7avq8Nj0hi+nA58kD3nbfy5+5K6Fr1tJdZc9BNOd4pxWf8Q8/bfsN6zK2olGxZw5/gy/Dp1C+JQAf0+MWF0d+0drtgN+DWwFvq8xilv5+CP9YzbZRw5ad9MdvWfizwfdUSyAVPJCMSQpl+j8boz+DLZ5Avu2WtixPJD2LN3Lw4c2If9q4fhnfoDcWx2D2T3jMKetfr0yglY0PkbmLswbXOiRrarGDn9sLbNHwvW3UKJCnTEL+NK0nzxNkwft00V28hUCg2wCYP014xMezB+I9C0rg+iwm4gWhddpt3YciAIFYtXQONec7Fj5x7sP3QAe3duR1fXKpiyZxUGN3bC+km/YNXFRBRq/i6yHh2GqSf0ijUSx7afVn/5/1ofM32mYO/oxvhz4k9CjIvS2vQ9ZD82DL8eT7b/thP3iemniwPyFy2KBL8TuKKNJrspEihTgWLIIvzA0xt2waN21aShamkTDr+r915kjzh2Cgl5i6mTJyRcuYDborDk9dFFciKOrVyDwIr/w/9qsSTcw7NkXeSIOYyzWk/J+fX74V6jpZDx8Vg/9S/k+Gg4mhW+PzZRd4MREqYJj9jT2Hr0FjLly4O0dMz9iHiVLo5Y36MIVAt7LM6fDEKBalVFPgrApuXbVQfoznX/pOm6jZcO4Khw8rK6ZEX1d7uhR4+e6NOvD3r1/BSlnfOjS7d3UaVA8vE2Rlw4ewOZqr6LHr37oF+/fujb6yv06t4WCYdXgLPzOiXzZvKVKAGXWzuxw1QIZdVusic2FP8Kobd8EeVdB1993VudXrxvn57o1e9DFLizF3tE4jm7OMN44xj2X9L6fcPO4MgVEwoVyqGumiNv4+RpvRzfxb7155GhTCm1J+6BO1fFYmaUKpkBl9ZuTxqKGxkZCUWI2RjPImhZgw03FhxefxiJoiLTRaYlIhaJLvdLGJ4tW4lysJ3bidP6S00Jt3DudjwKFmL/pfXBOAhStnu9unih2f/6oacoA3379kHv3p1R3KMEPvtfexTNnjRM4zG4i/0rdiHcsRDqlLFg71p7UwqCzsHXVhj1SrrDI085ZIzxxdlb9to51PcY4n3KouFrrfBBVxGPfn3Ru1cfNC9SBHXfH4AuNVNvxTHHJcCl7Gf4uLUNS39ehmDd5CZ/R0hwdPcZuBUtBXtuffF4IYTQ+ouhyD9mL8qO35f6MmEfyoulgrbov3OOTNE6KXlhCAy5i6VrNiEx8dm5H6lRokQpZM6UDd7ePihcuCCy5MyCshU9UaWiqDsi4uHs5IEMxgi0yrAfbfOex5LrVfH3ybxIsGVBkaL6gLcHqdCqOo4dDUV5UUEnJ0HUSxHx9trd592uKBFSCoP72FvELdwYqTs2RdG64n7su10fH7NDya0SOt9ZjdWVuqGtur0mxnyfAW+6CyOVuyLm+rrALYeniJc4T2KsqKSiYNIa/PI06oUf++RG3/IGeHl7w7tMK+yIy56mo5U7dzGEuQahbDF7a3LenPkQ7xCPYhUodIAc9Xtg7rgGGNnIB55e3shY5hNk/eInfFiVTpdROLF3cO/dehMig24iVFiOd2ccxZfR7yNDuXIYNGAo8jt5wcvHFYFfHEOvUmLXop3Ry+snuOevhtG782HimBz4ILu4v5xlMeW4EzLm9kY8b9C5IFrXccXMJtnh/tUmuHoYxP2GcSIrYVBLYMaGWbgxqigcvTPC29MBW2rOwc9fFhUbExETBsToWcxqRJioBOK1dHoAa4LYHqE5xB7otGIc8g+tCRevQvhkfiCKe+cQpzCJBDeK64cnNSLHRpgQY0zrpDoWxIWFIDw2KaFU9i+ehZwft9dmcrMTfHQJfpmyQbiIQJUJF9H5VmMYfHzE/fVA1alLUNspThw3G/PWnRd7eOHXpga4Z8iCDJ4GvBnfC36/N0q9NdV8BjsuR2BS9RzIkimj2hjg4mDAJIrSZNy5E4zAwGDNATJj5tvl4CDKjI+DB8blnoJLv9cV4fkwdv94lPy2ObyyZIK7oTi2FxuIOd3KIeH2SXxVwQBPEScvN0ds67gGy3rRXa+JrcE/Y3slAzJmzwJn12ZwGL4do4UoC9g3Gw1yOcArg3iG+d6Cz9e/49tmKavFOwhKDECw+i5LINb8NBlLKJaLvYkJY1pganMXuPtkhFfOclhjKo6IzV2Rf4ANfy5rjHx1OqJl+B94rdtasX8HTBjXGr+1tO/vnaMslkXlfnCCgaeIe8F6Qlz6YNH3/dCv9wCsv5EHTVqVE1vO40hkXbROdX4LKxKio5KVLVcEbf4Jffp/jYFf98SI3TZ88kVbkVMV3AyJQp785ZAt6fWgKASEBOPK6inqOPyBAweiX6/umLozCI7uhdG6fVXsn/KlEAw98EdMPXz+el5xuVu4FBiNw9MHY5DYn8f06dENa4WoVcJOY/b3vdFv4CAMGD4H2dr2Q/uK6hRwqWIxJSAuzpjUyp+5ZGO0Lm/B7CFC0Hw9HBdyNEebikKgJVzFhmXb1O/WRF/chB/EfX39dV8MX3IO9bp8hqo5Uj6VGEQJhzw6RUO4KdAX208Ho1TxFD2rWWuitPk4Vu6Jh6NiQqw6VEyYjcz5kMWnNFo2KKb2isBqVl/2T+vF7+eKkog9GzfDJX+xpBn9VFwLoVqWcCxcd0FVeZkKF4Jp/xwMGdgP3X5Yg8wNXkft3JQ6VnhkzgrXO8cxdsjX6Nt/BC4U6YDO1e3Oa2J8NOJN9gdlMcaINLJnuGLNP8Tr+fzwff9++Lp3P8xadxIxmaqiY51gfNOjP/oNm44ErwxCCJnsPUKZSqBe7tuYKPadfSASrgaR3vFGWESSZijeCB+8XhibJvZFf34/ZsxfyFDvTdTKL56vYkZCbExS/UX7GhMtnoWWdyQpiRZlIAqcN+geCszGOJGHtWdxHyJvRyVL33g/bN92RZ08pXjHHmiYsADd+/XHl7/sRanmTVCQDQNeRfB6q8o4Oof5pT+mbnREs86NkyY7sROL6KgoRN33cqGGTdiu+Di1l5JUbPcJGmQ7i6H9Z4Dayik2AJtnDMVgYZsG9O+ODU4t8FmbZL3ZLxgG5Xk026dgnqjsPt5pQ/ZCBe51n2qwwmcM1R5CPmjdA+DDPLgLyq8N7evJub4JLVu1wuZkb0271+6KLbMnom6pB180fRSXVw/At2tdMe7XkSiQrGWXM6XciXFEdm0KU8k9Tp71xa7DR+Hh5oYuHdrA0+PB3haj0QhXV1dwHP/T5OzZs+oMcRUqVEBEZDRu3TyBiPAAXL3ugLgYq+rgZjdvRO1SCai3qRtae53CpCEfokDhtIWQRCKRPC7nf++JjcXGoX/dtHqbH401NgiL585G8be/RfWcWqDklSIx8CwWbT2Oxm9+hAIpR84KAbh2xvfwfm0UGubTwiSvLqdmov+11pjQ4cEB4ZLUeSF6hNRvdIiYsMfV1aA8sCSyyUH8z1Er7mLxFiIoA/vsndNwoK0mxNUbgGuJ9vHhXE587on2pfNhtL3v/rHgS4Suri4PTp7hOwI5ms7TViQ6fldv4Mjps3BycIQxMRHL1m7GndD7vwL+LClTpgwKFSqE2FhOGRsPk9kHWbNVQvNmddGpS3N0ercRspT/COsvlcNXBc5hwoDOUgRJJJKnTATCbPXwWvUnF0HEbLuLbLmaoJgUQa8snKQgMTFB1GVawH0oMIttiVqvj+TVJkrJjDfrSRH0OLwQPULzj93GBzutyFuwAJRkY3kpc4xWBeEmB3CWWydHsYhALnwJ9c6h3VAmNLDvnJwra1F/1Bb8NPonVMvDriM78fOawnNCe5jPdbcPI7q2EB36rYDBkAlNvxiEL5vbneELa3/AN78fhsVaGCNX/YSsm7/D0HXOGD3pW+RxCsXcniNwM0cWxJ1ZiJ82eqDdZ2+hW9feaF7CGxE7huPjX87D3dGChAYDsKpnLfWc4cf+xF/G5ng3biren3oWrgVbYPyPX6LwS9CZxJlN/AOCcDskBI4GA874XoLRZBIC1wEWixVubi6oUbkCKpYuqR1h51n1COlwhhQuLi4UsQ6qIE5+rbt3w+Dp4QIPz/sGJEgkEolE8sJgiQ2F381g5ClaFhlTjiZUrLh25hCcCtZG/gzPpi6VSF5mXogeodRRYBOOa6TZoIogLuwxcuFfsbgy5vYJSdKNR4f3kef8Wqiv/95YhIrvr8e733yH4Z9Uw6rBo/C7vwXmk5MxYOQ5tO7zPYZWiseWYHvHk8HggMxCPW3tmR/DfPOhbZcP0bVVNaBAI3T79C1UKCSc6bPDUKTZIbQePgj9B3+BAovboMZ0+7dp4q7txOAGufDhqboYNaI3aobPRcWv5qjb/uvcDAjEqi3bceTEGRw5dRYms1kVQewNKpQ/Dz54qz3KFOc7Hf8uTk5OQoS5qSKIpBRc2bJlkSJIIpFIJC80Tl5ZUaZMKiKIGBxRuEIdKYIkkifE7iG+cNhnKQk3c+pdAzgDo764iRi78S9F0OOWe59yqAej+rLZwv6LUO29HmhXujiKtHgXX9Y5hZUrLsIUH4cEazE0rVcONYb/hq9zCRFjM8DFzRN/dy+CN2/Pgv/WAahSoBCKVSkivOmyaF6mFHK4XEGvGmsx7u4mfF6xCqpUbYHJB6fD9OUEcO4nd8WC6Ne/x5qBLVCxUkN8vWAGmi0Yj1/5VfT/OAXz5ka18mXVmW0cHe3ftrFarSheuBDaNm8MdzdXOAtRIpFIJBKJRCKRvCi8oEIIiBYiyCIUi7MQPBwKx14Z9gqxJ4g9QhRCjz2iKuoEtvgUQIHYq9ge6IcVU7uifv36qFezKUYdcEbZIlngWed9NMvzG15v3AUTZpzkq0lwdvNCxMo+6DK1AA783dl+LsIZM6xm+/TAN/dhVkI+lOUX/ZIohfI4C85KzA/M1SmT/D2UXKic0Vt99+m/DoVPjcrlkdHHC4km+3Q//K5B3eqV1d8SiUQikUgkEsmLxgsnhKhtOA1grFj4cUH1fSD+FUvSEDmxUBDx9+Nwos8E5Bk6Dvm9LHA3FsOAFadx+OgxHD9+DMeOHcOYNpzzPh8GrQnGym/qYUP3xvjG1wZPgxkeVd5DrzYJ+PjTP3DvU38CJ0d7ImbOgiIIS/q6u50I3EYO9WvnHFp36W7yL8b7Y1eoK7K8qBOrPwY2mw3b9x1SP+hWtXxZVQwxzJT6m50SiUQikUgkEslz5zGlxDPEYoDFSTjVbgZE8p0OV6Ex3MXiYV+cxeIiFgc3IZSEOLI8bGgcv4QvDs6STZ8owYzlfWqhyuryODiAYqcEPnnfhm/KvKd+34CcX7cZZ0LiEbNrHFYIpVOscVcMah2JS9dFXKwJQK4qGLnqADre6otWX2nfL1KMwOEg+9e0vdvghw+P4Y3S0+w9RILjfd5BYPehqCZ+W119cHf2/zBZ+2jl2WHf4GD1tuiY2pjf/xibdu3H1Zv+aFa/NurXrIoKpUsgb64cyJD08T+JRCKRSCQSieTF4oUQQhGJCsbXdUSJ0wsR+Oc4mBePgW3pWMQtHouwhWNxd/5YBInl+u+j4bptBkZnPYceOIwyGdOIvltGFD4/C0VcDeqwLYOhELaWmAxb2NKkD0ZV6bMJFyZeRG51uwH1p+9DxkxCabnGolsWe9jnhTdiWWsg2uoGD2crYh0MGLDlEmrvq4eiH/yGhCo/Y2zh4XDNXgtTDkTgtXlG7Hn7Nzhp52xv/g2+U2qo10uMj0XjH2bA+I59W/k1BXBo/YB0fG38xebazdu44X8b7Vs2UcUPaVK3Ft5p2wpurs9P5fEdpUSjEQlcEhIeWDhjHReJRCKRSCQSyavJCzF99s6rEeiz7gqyervDxZnTIxjgyCFx2sJhcfzLzw0pVvuQK4YlWixY8XFV7SwvNjcXvIe3TrXB0QmdtJCXg4QEIxwcHeDqcm+a8vTyLKfPPnLkCPwuXUKmTJmg2GzqUD1mdeZ28S9CQ0Ph7OyMwoUKo379uiIOL0SbgEQikUgkEonkX+KFEEKvAlfnvI5WR9vi0vTPtRDJsxZCbh4eKF+2rBZyP9yeLVs2BAeHCHFkQ+1atfgil7ZVIpFIJBKJRPKyI5vB/yXytfsZKwZ30NYkzxrqe4vJpM5eZzZb1F5Es1gSTRZYhfCxmM1Yt24djh49gmvXr4twObGDRCKRSCQSyauE7BGSPDeeZY/QoUOH4OLiggoVKqpD4SxCDFms9mksHB0McHZxhU0IIpvFinnz5uHjjz9S45IaiikGdyIS4CDi6Zw5GzKmeLHLGBGCaLMBNgd3ZM/qfX/rgjEaJlcf9WPAOra4uwiNE4XPLQOy+SQbUqjEIyw0VpzHFRkzZ1CnjE8Ls0g7R34sVvy2xEciNMak3hd7tRwdHOEitnl4uN8Xl4S4eDh6eGhxsSEmMhIJQhganN2RKZN3Ku+rWRB2N0KkE+Pqjaw+blp4ciyIjrHA29stae4SW7y4v1hxjKu4vwzJ7s8Sh9CIONgcXZFZ3F/y6yVG30WUUYGjZzZk8bz/xhMjQxBlYvq6IWtWn7Tfq1MSEB4WA6vBBRkyZ7yX5uY43AmPU+Pnli07vJMSxYKI0EiYbTY4eWRAZq9Unn9iDBKdve0fcH7OKOI+4mxu8OIH1V5JrIgKD4PJ5oUsWT1ezFY8cwJijBaR+R3g6uYOF47hTkJBQoIJbu7C5mkhsCTCLMp70gyoilUdbmxloRNVM8uKj0eKYceKGQlmB7i7OCAhPl7YNQUGJ2d4Jj+vwJQQi0SLAidRdt2dtUCR52NiEuw210nkJTe9NLHhKBFGYQ/4W5REEU93OHNMeqrQplrh6Ox03zWJzWSEzdlNnfH1fmwwCbtl4ncxxPE2gzO8PIQNE/vZLEbEJbAxygBXby88aqC1OdEIg0uKa9gsSDRZ4ezmmkre4DujVmEXXR6I74sB09+IRJGmqkcmFgcXd3gkK+uKyCtx8Ra4+Xg+8bvFPIdRcRb54cUpPTbGKdGs1jMcneHs7gM3R1EOYuNhcPeEmyhDTBvm1/uK08uCYkF8vCgz6nMX5ULcp8+9AmvHakRMvFnkXQMc3L3gkSIDWOJjkCDcG8XgBE9Pd/VVkiTMRpjFOdP0J0zxiEkUBxsc4eruBhdO0yywJMYKeyAi5ewp7ESyhNfj4ugCT4/7bc5/FSmEJM+NZy2E+A5QxcqVcTfkDq7duC4KtUlUxQZRiSgoUqgwsufILiwHMGfuXHz6ycdpCKEoLPiyHQbuCEMOlwCcdPwEwccmIIdmiAJ3jcdHX0xCgIMnonO9g91bR6IwbUb0dew/tgs/vPUJquxSMLy8fX9r4H682bwuLjiVwPVrXhi3bwv6lucE63GY26MBRu0Qjny8DYXaD8XKnz9CJvthSRivbcS0GTOx7nwGTFo8D+W9gRMzP0H7cQeQ0dNF/aBt8IVTsDT7DsdXjkB+3Z5emIscZb5El4NR+KmmGxJPLcd7/cbCN9iISOG81er8G5YNayHcn3vEbByHaoPmw81mhF9cZgwe9we+61hK22onZHx15BySG4cTV6E67zv0BN5oVAXnHEri1k0PfLd1A4ZWywFbzGl8+/HHWHM+HlEOTij3zvdYOrQDPMUFb+2eho++GoBgx5zwCyyCddc2o5W4LxJ+bBo6dR4Jf0cfxGR/Axs2jEZZj9SEQALm92+BERuDYE2wIVeLAVj1W1eIJ4xNvarinU0mFHK6jdh8/XBs01Bk5CFbxqLwoAXwEg5gnFtBDPphAf7XNCe3iMcRgCPHtuHHNz5CwS0KJrwAryJemFABLW+NwK1f2mshrxa+0z9HwzHrUKrsCCza8D/k1sJfFKzRl/H378twKc4Gi2M2NGr3JuqXzKptFfitRJ8VBowa0h6e5njcvnUOW2ZOhuGjhfhYL1Y3lqHjmOOoUTQTzML5i8vfAqM+qKlttHNp6XCs8vwEvcvexvTluxBnsiHSqKBC/U7o1KSIus/tY+uwZONemIQgCY0tiG7ffoyiwrzFHVmG0ZsvIaOzGf6xPnir88doUEpYmfjrmDfrd1wMc0EmdwOMHnnQqt1bqF7wwZk/EwLPYN+eXTgZXQAff9QO+uSsSpyws/5XsG7GXBTvPxut8tjDkwg9jCE/rxKOWgY4CjEXn7UCvnjvNeT2tuLQ/HFYdcsZGR1CYc7xBvp/Wgfu2mEPEH8Gw7+ajLydBuPTZkWTHLHwY0sw9Me/0WDcUrxbSAvUuLZ7CkYsB4Z89zlKZHt+k/ikSeQVzJo6BZeNbAgSNZQinE1DNtSp3hxNGxdThWH05V34Y4kfmg7pilJP2Bbiv/pbDL3VEn/2qKOFPH9OivrrF7/CKJ3dCcaEOFE3DEf7fEFYNvsvZHjtQzQvlhUrf+oGx9emoG3JJ7zxF5nz8/Dm5IuoxTKfmABTifYY9nZFbSOx4dTiiVh21YyMTtG4GFsKE4Z/gEyaDxJ3az9mzVyPeA8PJLqVxKdfvoH87iKdEqNw098Xm6f9Au/ui/BeYfv+ybFGXsDiWStwk9/tdMqFFh3fQM1CmRB5cS/mzl+CGJ/8iA5zxgfD+qICZxqzxWDjtFE4EJMRlmgzijR+E581K2M/2X8ZCiGJ5HmQkJCg2Gw2be3psv/AAeXY8eNKbFy8smXrVuV2UJASFh+v3I6IUM5du66s2bBRueV/W0lMTFR+nTpNEaJMO/J+LOY7yrG9V7U1RZlXz0up/P0Z+4r/EqVCnVbK3gj7ahLWMGXWZ22VOp0aKEVFEZt0WQtXEpSpNZyU1nMT1bXETd0UjwLdlDvi99XZHyglWo0XewhMx5WPGtRTvl91hWv3iDigNMyaU6nzViWleuO+ip+684Ms/qK2Mmx7so22MGXaj62UPMip/HjKpAZdP+erBMdoaX9zudKsQiNl3ulo+7qKUTm586Rij6mihK/qp+Sp+pVyWQ8goSuVqvUKKPULfqIcVQOMypy6Tkrj6fZrm3f0UTzyfqaEit9bBndR6vReoIYr1lPKpw2aKeO3BIgVf6VHyazKkF32TVemNFFy1J+kRHElaKVSrU4TZTtP8AiuLPhSKdd8uHJXXbugfNm0tjJ48QV1zXfbbsWq/lKU2ZWh1P7dfp/+ew4ojAG5vfgLpcRrA5QQNXlilSV93lFqdaijCLdSGWM/zXPn0tSGSsUhG7W1V41AZVitt5VpN7TVF43EIOXveVOU5UdDtICUxCq7Z/6iLD6t5dB1fyjjfv1B+e6rT5UlSfZBcGq20mvJdW0lNa4rv/QaJXK4ooTduK3EaBnbfHOnMnrkdOUCbVGinzL7+1HKLn/7tnNLRyujZh9QmLWvnblmDxSE7pur9By1yl7GIy4q0xesUALj1E1pE+2rjO3TTxk/faQydsYWJdyshVuilO2zJik/zf9Z3FNfZWdqyXBzu/L1rJ3ayj2sJrMScOXePa/65lNl1tHU7TG5tWu8MnLCPGXK7L+UoGTxDT+5Uvnh6w+VPj8fVCxamJ0oZePYT5SPf1iuXL2b9nmfKxGXlVm/z1euRGrrgrjbR5Up3fspU48FaSH/nMCNY5Vus45oay8Gp+b1UGaf1lbSYN20r5VNl5+Nr/C8MR76VRmy+mHPOFa5fE6vqUR6Te2rfLNUK8cRJ5RxYyYq59UKMzlG5fiymcr4meOV7774n7JaswX3kXBLWThjsrL2bMqDzcr6cb2URUfthctyeprSf9we9fe1VeOUATNOqb+VsOPK+BETlUO303BE/kO8jB2NEgkVvjqb3elTJ1G8dBlk8PHBpTNncOH4ccBmQ77CRXDpymXYrJxNjkM1UsfRKRuq1L3XlNJ5YEfcPHNR/X3op4HI/sVq1FW7F5KhuKJ+t5+weeFsNDMAiUmn34Plhxtg8Mf2JlSXFt3w+s05WBkCHNltQru3m0AdfOZcBu3LOuHwLl/cFzPn3Ph+/Un8MaAdchuNSd+ruo9jozHwakv0bHxvGNvNVb/jwK0yeKNSRRjM9nehCpYpiRxeWltqrmqoVDUf/O8m/1SwKyo2rJg0RCVTvebI6mFFILvQVULww2t/oeHEb1GGw3PUsP1YvK8Ovutqv7ZTo8/R4fYfWOqXiFNnY1CtbhU1HA6l8GaNUgjxDQRid+GUfzu838C+qUj3Pii9Zyr2icucn/4dPN5fjMZZ7NvSJkqkVQyavN4M9vb3YmhXLSNO7ziFBLFWskn9pKEylZsACZHx6u+89Wol9SpkLpAPGbOINFVvxAnVP/oe61f8iTfErRjTyB7xOwehfMFMyFSoFgaOnYLPJv+O4Fitgz3iCLq2LI5MmTKjaqtR8LeHpkIEZvZqhvGTf0QlQyMsumMSYSbM7lZJxCeLWFrjtH3HB7kyDzVK5kbmzPnRcdBy6J9rDtn/A6p4Z0SO7JmR9fXZWqggYTeaVCki4pQPbXrMS/qG2tmJ9eGdUVwrQw3MvJp2WUDCXjSrzuPzon3/FTiycgCqDPlL2yi4MBcV242FmrpxZ9C3fWkRt6woVrUpNgere6TAik19GmLc7u1o71ASX/91Rg31m9xAi091TPNjfCLwW9cmGHFwBfqXdUfDmZcRe3QOJi+fih9qV0KxahOhnv76EjQsnxeZMudFu94LRa6wk7C9DzJkyCjOVxljdovC9gyIvHYaIU7F0aYq+yBTIfo2zlq8UTE3e1gU5K7cDF989QmqZHKDMEFJxMdEQ3lYD/nF7bhQsBnYgZS5QB54aRnbKXth5M7shIhEC0xBlxDjVBZl89q3FW9aHS5Xj+OaeDCFyt3rKslSujTczdGI5oqwC0ZjIkf0PRznLOjYdyjeqVscHhZLMvvkjNLN3kPPLh2RV7HCqo8zMV3A7Al/4hp/JybAYnnQajk4OyF3kYLaGpC/kAGJiWm9sxmFfauj0OTDdshrjMTFOxFauEhViwnuVV9D2TurccRexFWsl3fhmLkiSuUy35fWLxw2MxLi733SwSNPVXT/qgpOLNqllu24izuxYMsxze7H4fCqXzFw0EB8+/0sXLEbYCBgO0Z9NxSDBw3CpKW7EfaQV1+j/Xbj78PHsX/GSHw9cDCmrT0lQkMwZ8Q3GDh4HFYf8ueACZU751Zj1IBBGDJ4IEbNPaaF2gnYPA5fi20Dxi7Eib3L8ctGe/2ocns7Rg8bgkGDhmHelnP2by4+gAJLiudtCr+JDetW4paaOR/k6rof1TgPGPAjDsdogf9RYkWZ57C0tPFE0TL3+r8rNK2IKP8A9feN3VuAah+htI+6eg/h2heo1Qbd/vc+yng6wZLKuK8w32MIy1AFr5dNeXAU7sY4oERpD3XNsXQleN8OQKSwFGcuuKBB62JqODIXRaUMETh6Oc6+/h9GCiHJS4kQ+XAQxiA2Pk4dx37+wgXky5sXtWrWQtDNG/Dy9oSJ45LFvkIXJRn8RzH/999RoAG/DXUOM1flRk3LeJQQjovB4I43Jx+y7+ToieKViqrfrDImP/G549hZoyXuDXQpgRp1ROV3NQLnPb2Rs7g2LEuIkPxlssPD23i/EPIsgHrVxT7hMWlUKMDfE79B3R5DwMF2KsZDGPXjbHz8848o5WiGWR2IfD+maydxKOAaSufOpoU8SPCezQjI4IRybnaDfWhKd5xp0Rnjq5ZApHC+VPxOYlvVFqhtXxMUQ/V6ZkSaXFEwV2YYYnTvxEWk90mcv3YXlkMncKplS5TUtgDlUKlmAmwBd/Dnmoyo6zwbpdT0dUObMdtTF3+J4bjg5CIcO30sjhPyiLT0yZxg318xIjJCuBLHJ6Hxb//Dst72711xyEF8ZBTig85g7PjTqNP2C+RSx+O4olB5IWLEeYxpJPTdHaNR5qtj+PlYKCKurEbesz9izi8H8P/2zgK+iqPt29eJGyEhQrAQIIQIBA3u7tpSoAKlRoHiFClWoDi0lApQxd3dXYMTIAESSELcXY59s3tOIATo077f06dpuxe/Q86sndndkfs/c8+MShqYlBnMiA+mU3nyWVJSkvmp5Q169P9VVCQvQ8vNdUc5EevFtrwTDHC1YMMHAeyu+gupSUmkHqlFbafxCMn43Dgz/Z0NNPrwNPMvRZOcfJtm4Wv5ePkFed/ja/HMi0klLj6Z5SbDcPgsSGx9xLjGU6izMJCUuGtM6+Es5IUw4Je3penlsWSkit+6P4oJnl0JlK9SlGA+bTIZ/y8uk5JwgyndHKno6cOtLZcosEOOrPwGj/a9sRGxHdv6DeLa/UJicqIwtHqQ/1IhpCLh3inWzLvAmLRgFr7hT9qPHahzZpQhPg/GM827M5fEm/h4xTYmNnqLeWfDOPlhVeLiwtjzyQISvzjMg8AxuIl30ObD/Yw/EklK8kN6pG3h/S8vi9/YRO22d9mblkrq6Rk42P+GyPg/oybiYQSm2jhWzJrKxx8NZfpXW3lSYJyKdBZ66wY2pXyp6Cw1EqgoWaYM9kI8aOXxMs8wtSlF7vEFjBw+hIHTfiI0URLGBSSw8aco3hhc3xh+RnZUOFH5GtxLmJEnjJZMj8oUtB+ozCvg5pwvaZ3niA+6S7aTg6HxwNSKUslX+HzMcD4eOYpvDr9Culu5UKW85EqX93zZZGqNW0VXeeyKprC3vS6LmMg4sqVNFna4PtktjPuhvD9+NvtvPmt40WnzyZbGCN3fybqHHXijySsW4358hDOurWjk7EBtTx23g+KNOwR6DXkW1WjbvCSHN994Gr9Lx49TqXkbSpsYxqH8rfDyo0ruQ0LFV8n1MCI+TXZfDju+gQupNZgybz4zenqQICWTiONMmxtIhymzmTtrNO39XaXhHK9El5fGpZ9+Iq3bVBZOH4rTve/pN3IvnafPZtqQRtw4uIXbMdKF9SQn6Og7ex5z5s6lYdJqZu8zpI8nBxcw97I3sxbMY8HQOlw4eoRrjwzqRfvoFLPWRjHw8znMmzcK1wfH2HLtibyvMNK4F01uJnp1DpmZouyXNqqziY2JIvsl5W/0vnmsSu7IwvlzWfBpfTZP+p7Hxn1/R6QxfLF7Zog8/xFvf76ehKzfTqQ3zgTi4O0pvsVxKdiEKpbnmDFkCB+9/wlf77ttaJRUmeNUzk2UxaZoipQxBnJ4+DCWEkTy1dSJDPloGLOX7yNOPtSJDs2rcXjjSbmOuLlxByZdW+OQH0eEjTMV7Qv87e1xExWmSvfSWvlvhSKEFP6R6KRBh+KfVqMlNS1DLgwyMjKFkZSMicqEtJQ08tX5cm+Q3CP0n4bK5cewfXgTpsYu48xwd7FBh5VFMCsOViNEnKvPPUz6tEHMulvQDi1RtAASRliRhh+p9fdJXDym0ijQQnGQxvrExMe/1PB/ZUyjv2XY3kl8363gR7KZ/EZfTBfdo7WZRlzeHGu7giWFDeQH7+C9ftOo/voKevsYWoCK8njXDAZMCWH2rJk4ijIw8eIqJl914fPpXcVeE8xMLZHNFukeTAvHThIw8FDYKr2G+bJr8QSW/7qFrWu/ZMWOM2Q52MunqEyePydPoxYGdAY2VqF8tbk096TnqzmL2TcjmHxZXCz7IQdWrWH9xnWsWy/MdktLTKSSrNBlTKSxUolJ8vfk4I286+tFhfEhfL/1dcwLuk6Ewb6iaxu82n9MXEB3+tUrKgRfVoFIZHHh4BP6vj+LNs7iWZu6MmzcJCF+TcX7FPbI2R+4fNWOUqnX2LVzN9etXCmTtI27icbTn0MI9nK2dHyrJ5Wl7jftJmb/qKZJlWR2b9vO7oRqdC+xiMMxIPS8QHq3enas3ibEvBtxp/ayc+9JtKUSiL0RSLKIcoNPllD9/j42bNuPU9N25N6QhJA9zg5OJF3fTLKFCwFtu+IrJMY7Hwfz/usO7N22jd1B1rxR/gCrzku/UxQbSjk6k3RjE8lmztRr0ZrSNfqyIGcdX4WL3Zor/Hq5HoP7ViPp1CIu57Vk5rAGcgXjWvcTuhV2eS+MqLW9R0yhuTwmLJBBH9zhw36l2CfF55Y5b7gf4pdz0j4zpGRiIgSvhF6twazTe0xqIb0zNQfWbxRJx4X0i/vYuecQmQ4ZpN05gzq/Ai5kEhIiTKWa3Rla+xU9Nv9fqDAzy+FmkJrun83i+xXf0dnxAVt2XUK2Q7U5PHoUg6OPZ5FxL6LsMX4rwLLOQFYs/5al3yxnfnM1U+duftbo8fgKl11r0aRIA27mgzOs23gWfyFCy4ssLE20ULhTSTI080RZlyN1jxqJubCVVSdzeWdgR8OGUp68PX4x33/3Dd8vHYp6/3dsDHypepUpGu9nFNljFcDUpeOpLsWnYgsmzl7KN99+x/JPGnBq1S9cjTFEKjHsND/PmcW0fSJOHwRglidvfoHAozeo162l/L1iowCSQq6QUqiQ1Obm4N6xHxUjTnFfenDJB9gR1o7XWtiTm/+q/FyMMSmJk3h2Ug+bysQUU7mgE2WBtQMm6dFEibLM1L8djWwyOHP8KmV79CNAajExL42vtw+uxrGWL0Un8lDdznSWOhtsyuPnXZvWbZtRRgRtK/hQu7IjsRlSM4cK71a9cIq+xbWbIbh6VyE3RirMUgm8aM5rw3sYPBlK+jCoXXXs5BYbNZcu3sS+TGmSbt/m9p0nmNllEf0g1ug98AwTExV39n3HgsWLWTB3PcHifZpJ92pq9lw6NgRC2Lgnndr+Nty5cYOgZAdq2F3giqQU/6aUbDqcn1ZKeX4Fs2tE88kXO417iqDL5vbWL9kU35YJnaVGU52oE1I4fcmWGcuXi3JjHHYXt7L1fmHPjlflVKnMyubKDQ1vzprH8hVf04SbbDl4U671zCvWo6ruMt/PmsXW7OZ8VNdRvpTcY1zokiqRHpNTn/XK/l0x5CoFhX8aIrNqtVrKlS/H44cPhAFlRujjcILu3qWUszOpSYk4liwpCmFTIZr+QwWZFszUoe+wLvUNrp0dLkxCgT6PtDQvps/vIx+CZTMm9ktn06YHhvDL0IsSPjRebmUxkEriYy0e5cqijkkmOedZ629qQjLOdmWK6qbf5J4wLBw+6y9MXgOR3/Ri7m4HzHaNYtgnA/n1/lV+Hv82i08ZWlETj35H61FfUm/URr4d7CtvK8rtFSN47fu7DFvxIx/VlKZuSGbp8EGcuxrD0lGf8OEHn3Mq+RgjZm4kOTwLwhPEEQWkkhAGFZxFxVZzHAem9uF+4GmCU3Np0mIqLT0kn8JcMiOSDO5UMolkxppS2tme1JRKTF3wlmGzaT3G9Neya3uwqGPjuX32PBcuis+Fh+SIYkyfkEZy1rPmzwwheEtZG4zeUj6D2BETTeTx+eT/8BHNPjxorIzLM/rsFZ7cPscM7+v0bj2WU6lFq+mXoE8XaSmVbLl134CJtSMWti5yXZ0SeE1IjEyCLh/n1KkT3HhkSZuBw6la1ANBRo+lUDilCgyWs2e5K1JY+PXDnDp7huP7r1N7xApaiHpPLSVT2RASv//oCSHpjwg8f5LTx04SYdGA13t3pJRJCisHvsWQees4c/kcxwLDhE6UUpET7y18m8p3ltGi0Th+PiSUVfx9DgkJm3TnICfF757YexrrN8bxZjUpIkVx590Fb1M1+DtaNBzHT7uldG7L0NnuLFt+F/W9cyTWKkcjoUviz9whukoL2aD6T0gTOVYq0CZhtzmgsiP5rjE++05j3mcM78jdhUIMS4JY6r4VSAskl3EsgUY2lDJ59PAxd7MjuXLxFKePn+QRNendux3mFo2Z97UvB0e8Qcfuy7ie9ZIm5v9v9KjzzKneuA5ljDWqV/1a5EWFkS6SpD4vhoRke/x9nvbT/i7cWjWnZl4S943h4GsJ+Dfxo/B8Usk3DvPNrptU7/Ee3XwNQl4SibmZ2U8FlJYMdGoLbIztHHf3rWL9lWw6fzCQek9bdwtTlQ6tPcmMS3gmwv7LmLnXoamHLU8yDf2JrlXbMnzWTGaO7kTkDmHU7Ql5sRki7Ron7qQTe2kLmzduZOv+QLLvnGJX8LNY6vVS/vXAy1vPg3spRF24j/trTbHMLNK7/nchM5L7ohwrI9K5oTdLauCDMjWb0dA9iR3CAN6y647YoiYu0RwX91dOMfECUn5yLGFjdJtSo1ZbYWcrylIpqJFmWdUL4SWljySO/fIL244GEhoeysOodMwsDNsjcyyxs3v2ZK1KiDLdVCpvskhKyiAtN55HYaE8CHlAlr0PjWp7yL2GhZGEe70BnzFh4hRmfvEevuL0l3kuyJVhXAShplZkxd7jQVgY92+H4di0H3ULOvn/5lTs2gbv5GiDK2lhNMkcWPsrF9N9GDOpu+xtItkTuTn2tHnNOPGFWUWa1Lbm1mXJf+A/oUOda0HtVgHGnmNTqtevRlp4FJrEQJZ+f5gKfT9l8tSpzOplw7K5ywhJ1GGWlS1K24KWh3yyMnNwsC80IczfFEUIKfwjkQp5jSjMq1Wthjonh7DQh2ilHhdRsEdERJKamEC1atVkw1UntaAaz3sZX3/WmaBqU9i2doQ8C5mMypsmNR4RanDVldHn5VLZ45mv+wvUaEibuCs886AO4cKT1tSpXwI/G1NywgucjLJ4HFyKcp5uL1QaryaMX391YvSAZ05mNh3mCKNwEV1aduL1/l3wdypDrTY9aV9D3EXwT7RfvJexS44wcuDzM8EVkHboPZpt1oqKdjN9mhS47dky4MsD7FvyMV0796RPn6ZUtPKgfavGlGrdmE6x17hnPBJhwp170oSGNQ0hr75DWPLtMqYM/5BEk/u4eVWApo1oevMyEYZDIOce92La4Vnehbq+0UTEPqtk9fm5QjSWg5KN+fSH71n21bd8s6w/1kI4+DrZoH1U0BuXR2RICWEUuBdpgbfnnZlvELH5IIVem0yZHgPwTHvClbTf4e+sMsPSIp3MlGfCVZudTF6mEJgiIVm4lqdF7X4snb2AJV9+yVdffcmYNzs8nV3rRYRxU3Cb7mVxs6jLtOnzWCydu/Qrpo/5kEriuvlS/SOlYWEKO1iXpkPfySyat0j+jS+/XMKH7b2ErtzDl6tzGL15Pd/N/4LZQ2uTmauWjRuXen2Y8vMdvnxbz9r5Y7md6YAvjgydNpdFxmt8uWghjV4xJqt03d589lMQXw1SsX7heI4lCP0/aAbeS6ezaEccvuXrypWqZXlnnFJiDL0hv4On4zbcXKiit+NjEZ+Fxvh8tWQxjV8RH0kMGaxbM0ralqZdj3Esnrvw6fMY0tkwVWOTT35g6841tNWs4KOFR+Rt/13McXR1xFQtBIdxi0p8s7e1w0Jo5cjAfSRUaE7ll2mO30KoxOyC9c0yH3Im0YRGXsaBP4Lc0EMsOfSI/h8Op1H1Zz1dFlU9cI6PNoz9EZikxZGmd8dNCPGsKyv46aETHwx7Bz+3l/cAS7GX8lru00T556DOz3vejU6mJF2ECIsLvv80/gXEBQWRUbk5rzWpRXV/f/zqduStrhW5cdIwtkwuw43Xq+LjTeaZn/n2qhM9AkoaWxGKOypMjD0+BvTcWn8Q5zZ95EaFgnFX0h8zm9LU7zmcEYNbknbhF/Y+1OBkryP7D46XkRsXjN+lKxd9HSpTUQOl3uDsbRXt3n+P17t3pXudkuTJz9MMC1UKaZnP4pyTnizypFRQmWNhbkOVgM707NGT3r1706tXL5p4vcxo1guj/BVdgIWR4uZYAgeNNU07dqOnuGbvPr3p0bUzlV7hSfm3Q6smq6gPq+DC5iU8LNmMDwZ35KnfgsqZiq55JKcUStvC5nFyeUWB+RzWOJcugTa3UH0nhJW9oyNmUSHEWtekZkHDnUsrqls/4mFOCVGG5ZCQWmAtZRAV64D7Hy7Yih+KEFL4RyK7vAmBI7lIdezUCV8hejS5OeRkpuHs6EC7du3lAdSSMSW3Mj/XB/8M9Y0v+H5tLUYPaUF+VjqpqaLgT88UZXIJPpzQh6VN+nFJHJcuBMfge32Y83bhgl6HZCo/q4PbMPqDswx4a6OQOlmse7M/mgVLaST2dHjHUzYuzyQL0XbiezYm6xn0htgTPA9fhze4XKis04nCUh7fVKjS0l3Zy2prNwJcnxVKTlXr0qxVezp17kDLxp3wsXHEt1VvapRKYfmMDbjXG0aHaiakp6WRmpJMllR/hSzEx74/wbpwJn1wgXcnTqOSaTZp4piU5CSyNZb4NOtIW/H8OnZsQ4eODSmtKkvbZpK7YGvGDr9C39fXkinub9Pgt8mY9SWS841OnUN6airZ2ZnsG9ObXWlN6N1YlLQWb9Om6S+M/eIEapKZ0/ptqm1bgTQcs//IPvzYoS+SZ1Tmme/46HpLpg4sMi+ujD0dB/iyd+UEDkZl8OTiT6wKTaH/m60w5SjLltwmR55c4grv157H29sXUlFIr41rjhEZkUKuNp7d06aSVL89gysIo+kpOtTimUgfmfyDNFRVY6vehZ59fdg3dwK7HomKPzWMrxYt5sFdU0zEe/LpO56ygR/xznenSdfmE3LtAL8sPyzk2csQvyEE9FM37kqTGF1vJZ36/kS4XkNu1g3mjvhRFhUqTR55+VKKsuH14e24MLQL825ECqM1heObN7LvzCNRkZphbpZJnmRFphylV/f1WNjYoso+zaJVe7ifCP4ta+LtokZTsRtrZ4bRwHEsN0WK1qpDmf/BQgqNunjGk0Pi/F0EC/FTs2UtqrmZYC3XHl0Y1GQrS85qaN+vq1yhVOo1Hd/Hn/LxomOkirwVemoRO6Vx2C9BI27n6fO16cam2dE0shvJDTk+YSx4f6FhIgTpOQlRoDEa51IeUEuD9eU8UIJuH3Xn7pSeTL8QJtJaGmd2bWXniVC4OJKB28SPWJenes2SVC3vQ9qR0dSvPYk4zTU6qKqwRhiPhyb2ptvQ9U8nWPijuFfzR3vjJAcfxqMTgvj4iSDcajfAQaTqS8cfUaOp5NNfFOke1c8mFiCb46t3EyGtJZMdyZ4fNpPTuDXS5LTxYfdQ2bpQ2qFg6udEju65SoWGHahYQkNOTo7IW1lIc5nYlmmBq8lZDon0oBN3tHnlYSq//poQqaH8vDqM1q93xV6XZzgnK0tu342+f53zF+4gDU9IvrWWXwLzaBjg/1zvU2H0wtiV3I1f0DHinqTFqp+WTTkXmfLRF0h9FiFnznAzLBqtJpvb+9dwQVeWphVKi+NvcOZkjLzwtdR4smxlEI16dzRMcV+ALoHLV6OpUrcxXqIs9/X1xUcIPv8eXSl5cyWHRaK1EJmvYK240t61sMyNINXNE6lkkloapH2Fy8xihXiQOpEZpPehUeejyY7jxOq5LImvy4SOBsNWJ5651HsieR9HXNrCKZHdbUuVw7WkFvMSrjRuWY3gFd9yNiMXfXoEN24HEVdEGOm0GpHfDHlIfofG5yW9N534Li1Abggaw9ILFhWYiVW+NNeFsH2vi3IgCHOpoBOlaPM6pmxbstkw/jH+JquO30deDgpbGjX3JWT5l5xOyRI2dhY3z54n6PGLpYtOI+XrIi9G1N9aEdeC9CXFWyd1XVk0ZECzWL6ZuZMoEWe9Lo69vx56Ok7x70cmh37aSYx0n5mhbFy2FatO3ZCmZwrat5o1B+4L4+I0u8870KpdDXmNrpycbHmtMT1WNGxRg1vLvydEHJ/74BTbw0rTtcmzRhHpvWrF8302SUgMa4fP4LxahWcNfzLPHuBITBq6lHCOnI+kSk1fTGo2pXL8ITacMYzniju8kBPamtTwLEv9JnYcWr5eft9hZw8TUsqL1hWLuDqkH2fisK94rE5l+7xZrL8n6v7rq5mzaAexRV5zcaFYCqEkkZHP3RcFX1iK+CQbPo9SOHXvz5nxR+Gfh5TfpFnjzM1MsbaypHatmvTu1VP+NG7cCPsSdlhZmstrB0njiQoK3KKYO1XDq/x9hjb0oWa9BtSvV5eOb33CBWFQmrX9jvQDpehT3p0a715kwZrFVH+uC8eO2m3bULXQsJwuK/NZXHI8vuX9mFhyPmfHV5e3O7WdxcNv/BjRyJtW0y7Tb8Eq6kluudZVaNG+Dg6Fcqqtqx8Nmvk/nTFKIinPjIHDe1LjlUtk6KnYrAEeNlItZYFXc3+St4+nbnV/GjRsSN2a1fno+8to7X1o2aE2JVR2NOhTi9MjW+Bdoy4NxTG1q/sw89jTATZGHKjVsTY2xufXZlkWK8pMxE/c3zjzKVyaEiBvDzuyjL7iN32r12RF2jjubfyEAm+GaftjaRY0UBipNVnf7RKrexhuwrT5QnJPe/NG+QpUf+swn369iCb2Ly+yHJtNJGh5Mz5vX50mow7Sed5mWsgT7QSQfbi9uIfaeLn3IndNDKu7S+adO765m+nevh7VqzZkXkxTdu+agONzl7ehRkdx/wXlvKkrTVq3wEXY1WW7LyLw6wDmdKqDR5dPMWk5gvatSxnGYTj6s/7CHqx3DaJ2VV9eG/U9tm3a8/JXY4Nfiy5UKNQ4/+m5dAZaz6KVZ3Vh8HVH+9b7sg++VaUmtPQxtAc6BAznyqWhHB7ckqredZi46wZlfYRItB3A+u9sGFK9AmX7nOW7cyto6ytMSht/3K6vomc9D1p9uJW2C7ZQ2xT8psZx6KOt9KzsS7UqzTlXt8OzXs/ClG9EeWEg9w7woPl7G2izcPvTnpqOw6bRyr8m9Y2TK6pKevHr+RO4nviA2lUq8+acTPxeOkbIBI+mrakueVwaqf5ZNMdG7pTj4+3ZnJO1WmPoi7QVArw2lewNT9G2rB+1/ao8fab2tQZz/uIELo1oR9VqtRmz9hxu1atAwwGkj65MpUo+zNN/wq/vV0Lv4EWTZt5YmTrQoENLyovk4Opdl4Dq5V5p+P9HSvkyZGx3Evf+wOcLfya3Si961hFPMnw7d0oPptVLH6oFZXz9Kfe0fLCivHM8v8z5glkLfiKh2pssGFRHbM/lQXgSFf0CCi3mbEE5Hw8yz61j9px5LF68mIXz5rDhoqgjzUrQf9horO78yudTF5HWbip9pI5inQ1e9atw+5fZzJ63UD5n/tzZHIsU5Y+9ngfntrJo1ixWHE3ng5ljqCf5Y70Ca4cKVKnk+twEHgas8PCvgXPBizF1pFoNTyFVxW+UyOD0ph+Y/cVCjidV5dPxr1PaWhyidyPp+nd8MW+eiO9a3D5ZxOu+z7+JvIRkskpWoJFPkdZuU386tahOWlQaFo4VRBli3G9eiup1+zG8u9Hl19wWD/cK2FkWS5MHLO3xss/h4PrvmDd/PrPnryPDZxC/Tull6OkSmDuUxbOcuD+xwcrOhiu/zmDGtAWkdZxLB1GYWnp1YcroOpxfOp/PF68jKEZHCenBF8LKtSr+7gaJaV5SXK+8i/H6JpQs6055F2NiNLGkjLs7zlaiYHdpx4BWajbNm8aUn+MZMqE/ld1shMgG374TGVojii+nT2fa3gQ6N/WjlK3h3dn7dGDy6AZc/m4xs2Yv5PCjDJxdX8wI9u418ChcwQlMLO2o4O6B8VKU9vDFxdZQyfi9tZg3q93gx89FPpnxDXEi7xa5zb8R1pSxj2D5zFnMXLSa/CYjmPWatBZYOglpehzKiHdl7YJHOQ17vvqCOQsWsWjhQr7+YQ13hRoxrdabJeMqsnbqdOatu0uz/m9QzU7yISxAlBOizjVMAiTIiiLYqjLe0nN1qcOY8e14uPZrPl+6GcuavenkIzUEejDh2/fh2I/MnD2T5ZccmDznfblBwaHhe8zurmax+L3Vt83p27cTJQr/nIS5M95+lbAxscCtSlXKifiYlyyHZ+XSr6gD/3qK5YKqu69F8fHmRzg5SZagMXoqEx6FPSbj+86GsMLfAOndvboy/TMXVD1+/AShYaFUrOiBViet1i3iIj5yw5M8QYLBJSA/P58HDx4y8pNPsLH5/f7VCgqFuTDvXebmtmbjjLeFtHkZ2Vxc8bUQCCFoLAyr8auzM6g/7AeGNi5e1Xhm7HG+HPUzYSWsZddMnTofl5odGDt6wDO3jD9I1Pn1fP3dQRKtDav+a/KyqdJxOJMGNPpD4+D+XuRz5PNxRA/4moHGGWf/L+Sm3OTXb4/RbNQY/P4pLkAK/0C0HPhqHskdhvGmz3P9eQp/lMwo9h07TbmG/an13xz/dGcDUx8GMKvHy3qo/70USyF0KCie8YeScXZ2fiqEpBlTQu8H83j2s8l5FYovMfGJnA+8Trd2LbCwePngiD9TCKWnp5OUnCw0jyR4DCJIwvBH6gEyCCHpP7sSdriVLl3EP1tB4dWkXPmVwUPHcinGDtNcUzwaf8zSjeOoY/2qtJzPk6uXuRGZhN7MVBZC2vxcygZ0I6BC8Wony896xMWDN0i1NJdFi+SWYuNaiYCAmpT8/YPWCqEnNTKIK4GhZAsRKF9Tk49DlQAaVa+A+X8/+xcT8ol7EIO1Z0X+f2bt1qpTiIvW4lLR+f/eY6Wg8CcQf2ENyw8EozExQ59uSoV23Xm7U60iYzMV/ih6TR7pGRlYlnTG6r9olmgzYklSueJa2J1EoXgKoYO34hl3KEkIISfZYJWQZvd6eD+EyDnGGTJ+i/Bj9O7RhR03n3nl27cZy9k1i6jxe6Yy+v9AlxbO5OFd8BkfxEDDWN3/f8IO0WH2Tj6b9iXNPZ7NVFWcuXU3hGPnLskuaG/16ioEz4ti6M8UQgoKfyp6Lfn50iQEUtpVYSHSt5KKFRQU/lXotPKYI6kO1yO5oisGtsLfj2KZaiXpI7kwSRqo4CP5oz4d7/WfyM8iPmAEoXnGln/xOdsnk/plnVlSeIr1PwG5QBCFw3/VKrI2Q5rZ7L970T+Ph48juHjtJmamJmRmZrFx9wGSkuXhlAoK/wxUpkL8WMlCXhL5ighSUFD412Fiirm5OWZm0iQtighS+HtSfIVQkY8shqQdvwchRkzUOSTJyy0bqPHxcuJW+DK2zXL5+jLRO3n/3ff46P3BvLtkl2FWp/xUtqyaz9lwQ2+SOvs6275cTaTxUo9O/MCPV+JJPL+Wg2GJnJg3mLcHj2ONNIWLQOrcUKlM5L8FXNs8lcGDP+CDQe8w40RhQRDKgvff4/0P3uO9z1YRUWhaKX34YWaNHczgYRNYuTcC65JW8kKgEmHHvxXXe5d3Bk7natGx638BktB8Eh1L4M0grt68w4lzl8jNz5ddzaTHkJObQ0RMjOFgBQUFBQUFBQUFhWJAsRRC9lamcg9I4V4h6bs0deT/D/ZvvIvbjV1ckAIxO2jmOxuXN17n9b5dKXd1AT5jNoGFCXdPH2RDoGGlkewji3htzBQOGBdtu77xQ+7rXIm7tJY+Xs0I9H2Hzp4ZfDFhOEfjRfzMnh/6++DnfgyY/YRGA/rS/+02nB5ak0knDWIoY/M3BPv34q03e1Dx0UqajfhJ3q6JOsvbH35KQsXm9O/cmPgTS9lzPBlbO3N0d39k7ITj+PQaxADXSA4WA30RERXDzkPHOXPpKueuXJOn+JVWwM7Ly8e9fFne7NUNv6rSTCgKCgoKCgoKCgoKxYNiIYTyNVrG/HKeiuOOUGP2JYZte0TJknZyT4OkfQwfHeXLlsH/8wt4zbhAmaE72Hst3HiF30nJmrQkW143YcvoNdT8cjVzO3akbfvezF43hypfbSUQe1pULEvsicvy6vPHt62n+UdjybolrfUbxMaVzehWX1r/Qo/7oE/5tHtL+k+eygBrR248ihVCyNALYuAGU98LZ9GVX/igbTtatxnIlq/7c3nyKhLE3hJ9v+TnEV1p0bI70z5/l9Qrd0kU2+8e2Ydl2RHMGjGIdl16MG7CKPwrJJOvg5zkKFLy6zGwWws6LvyZz/4/ZiP6b1G+bGmqV/PE3NwMU1NT2T1Qq9Xi4V6enh3bUMLO9pUTJigoKCgoKCgoKCj8FRQLIWRhZsqSdxvzur892RalsHatjJmZlbQG2rMeIa0eS1t7zN08sbIwZ/m7dehap6LxCr+T9Bscsy1H+YxgttzMo0zdwotfVqWJ/X2uJEH99nUx1YWQyQU27p3KpDc1hF+7iu70Knb2n0AzcXRWnpraNWoYTkUnREAUDx5ki+9GGSTZ/bc3sMmkMbULaQCrmv6UT7yHtCJS2t3rzOnnh5OHF/7txpIelyPPsx55Nx59ZQ8KZkq1KuVOufKVUefqsW06iFZOs2ja6h2WbwzhxTWI//eYmpjSvGEApRzs5QHkEtLCbK2bCMWooKCgoKCgoKCgUAwpVq5xi95pQDvnJOJjY4S0kGYheSaEpO8aEd2MqAfMaO1Ij4A/KIIEdyd/RakJc6lUApyt1ORmFb79TJ5kOOBYCmx8m2FhakHItl+JHNSNjt41yC8bxZo12+jzehf5aGncklpTIEOk2JlialpoYJC0qbQbtro4ceVnmKSlk2ZemjI85tPavbjebQfJj+9z6+ZPuFWwkXuh8nMTSMjKk39DRlpRPitRXFPaW5Hpx7PZ/WltVvVvzJRrf/0gIWlB0hPnL5EnxGFN32qyGNIKFSuF/yri4uIIDAzk0uXLXLp0iYsXLnBBfM6fP8+5c+e4cPEiFy9dJDVFmcRBQUFBQUFBQeHfSLEbI/TVW3XpVC6b2PgEIQRMZDEgfbQqM0LuBLG0Zzl6N/wP402EYa4zt8bJpaArRsveKW3xW1eJc1MlAeXNwP4qFrYeLbuoScRv+oLjLbrQR9Iy9pVomx9In9fW0nFoALhUpmT6DZb8aEnvnobj9cLQL5jaW0JXKCy58ekkDeA6mqGV1/HRuMvydol1I8Zi8fEQnHjC/fzSvP+ml7x917RFxAbFy/fauGtTIo9+w0VplXrBpQ3zOH42Extbc9QXl7IzWdxBp9HM6ZtM0L2/3uXs6JkL3A97TJumDWktPn7VPCnn5krJEk+XTP+fE/74sTwPf9kyZXBzc6O0/LcMZcqUpWy5ciQnJZGVlcWRo8fIEMcpKCgoKCgoKCj8uyh2Qkhye/v67Tp0dssgKTkJvYkpaqEvYsLusaqfO51+jzuchS2lryyjiqVKHq+iUlVgq+MkklN2CQFioMGnh4j+WYOrvF9FtZ9cObDzU+OCdc60a21DVIUefCQvwOtJL9skbjV/k9cLOn1MzHjWAaTHxNQUE5WIqBBEpqZmSF8lFtyLoePDjsZ4qNjaI4jNw6XFjJqyZ5sPHaXtdrW5V6YlpeuWI1fsKd3+U75/05beNmKfpTPzMnvRu0tlpA4WnSqOQU6Ga71pv459b/61QuhR+BOCH4bRpU0LKpYvK29r17wxr3ftgJXVX7fmkV48HycnJypUqCA+7ri7Gz4VxKeShweOjo6UEcKoenVfDh85gkYj9bYpKCgoKCgoKCj8WyiWC6oWMOynC2yPcsCeTOZ2cKZ3g0rGPQrFheycHHmabCvLP746/p+5oKrkDietb1CzZi25t65AiEqJXXJhDA4O4fKly6jV+ZiamdO/Xz8h3IrXCv8KCgoKCgoKCgp/HsVaCEl88MNFmlVz4Z3myvTL/zT+TCF08eJFeaa6mrVqISQQsbExpKSmid8ywdrKAg+PSuK74djvly9n8LvvynEpys1tn3HJYwIf1rU3btFzbN0csmsMpZu/o7xFmxzK6oOnaN59MPl7RrI2qg8TxjUXAv53khnFtpNX8GvQCe+n7px/Prqg1YxbeYF8tZ4894aM++AtqjmbGff+RUQfYNCUHZSwNEFddwDL329u3AGaexuYsvwkqabl6fLuSLrVMDzh+PMrmfTLNaxN9Fh0mciS7sYGk6wbTJnxCykZeeiqNGPC0DfxeJW3ZnIwa1ev4eLDdJEudOTnWNP0/fE0SFrB/lIjGNXIwXigIDOeTfu24dn0XeqWs0KTFsLaXw5R7bX3aFT+2Q+kXV3D4jAfZr5ez7jl/8bB2YPZ/sQcjUN9Jk8diKdtoXeUfIbPVsQwbGJfyor0HHvqS+ZsCZV7RNU5GdT94Gs+CNCxb/kMDgfr0ek0aGzL0m3oRDpXNEz1//DAIpYdiJDH+um0+di5NOXj6W/jUcz8BVKu/cr0b1IY//NoKhi3FTcSrx3h6IMk9GYO1GjQmOrlC5UC+dEcPpdAs1Y1sTZuShDHx1ZsR40CV4Xsh2zadRVpyThrj3p0alCFojlSHX2Dc4llaFldxYlD54lPz4MS5WjarAnlShgLtZwkLp0+wqNkcPBsSccAN8P27Ads2n0NE3F9nYsPPVv4I7KayFzp3Lt6iaCIVGEU6FBbOVG3QVO8Sr+iVz8zgluP8vD0rYqNlIy0GQRdPktQeDom5jZ4Nu5EnTJFYp4fy6njl4hNzcXCyZ0mzRrhKi6vDj/HpnORWFkYjzcxw965DLXqN5D3F5AbG8LFa7dJyJIWSTenQq0mNPJyEXs03D21jzTXBgT4uBV5Xrlc3XMMTY0WNPAomH6oGJKXxp0rZ7kXY/CH12u1WJb3p1MTH6OXinil0bc5ejqKWn07UuH/mDczHp7jbEYlOtU2eG8UBxJuH+J0SIbcSKnJz8Wj+QAaOidz9tAZbAPaULusPQ+vHEVVuQ1VSv33bYVigzaVq+duYuXXGD+ngrduRJvMxf2HCc8CU89WvFavtGF7XgT7DwaSmatB71iJts3r4yTlGV0e4bfOc/lBojzaXmNqQ7V6rajt/nwFqIm9yaHzwWTo7PAOaEGtiiKPJN5kzaG7WFsa4qCX8qO9PT6NWvPsdA2Rty7xxLoqDaq6Fj/Xsj9IsY//94Pr806zysaQgsLvQ9L3UsEqiawbN24Q+vgxegtz1KYqohLi5R6jrKxs8nLzpSFlr8Qu9BCfjN1pWGxXJoafP57CjB9OP50EI/XxMfZs3UuSGkr7tKBRnXLypIG/m4xwVm1cz60YyTHyf0PsqW9o+OkOaorCrV2H9lTSZRAe89i4968ik03zj1Gzezc696hJ9Pz3eP/Xh4ZdCRfoP241VvVa07BMNBNGfMz5eGlHHJt+vUtA1250e60SJ3o359vb0nYtp388ir1fAJ27NcPq8nd8NH69PBnJS4m6wMzdN/Gu15w2rVrRuk1TfNxdcYs9yuiPthZ6/5AUvpkfZ6wnQW+w0pIebGX86M/YsP++HC4g6fw3zPr5jDH0f+PixDrMjmlAj45tadPYFwfz54vs65NeY87UtYQb0/CDzWPYlduArh1a06p1W6qXFRVbSjg/rF5BsnNdOnfqIozu68x4fSRBxnlCru79mv3pnuKcNrRs2ZrGDbyxL4b2hlVpX1q0rU0JY7i4kXR1Kz9cSMXP1wevKhVxsnu+FEi4uI+L4WpZBOlSHrFj5UzmfPMDt5IM+yWiDpxC7+NDjerlSb+8nR0XhZIpwvktvxJt4sCTq/fIt3XBt7oXthnX2LDxJJnS2hDouHxgEzdSSlKjXiWCNi1l132pbNFy8+AtnKp541e9Ark39/HDPmOazU/k4t1wrJ09qFbNC69KFXCQFc6LhO1fwOTpC9l+KZQc44w+yRGPiBH34elXg4puyexZvpbQdMO+ApKv3SXR2g6f6t7YZFxn764rCLsOM/syVPPywtPTEy8ffzy09zhwNQnLIhos83Egxx9k4eXth6erKRc2rmDfA6kU1ov7+ok1h6+QUXR+nidH2Xn8BGfupxk3FFOy4zknno+Jgzve4ll4V3cn7+5+Zk1YS7TxEDM7Zyp7VaRA6/5fSA8+ytaLEcZQ8eCJSOdB+e74eVfFy6sabnbiBs2sKVu5Ci52hsbJO+f2EJxYrNvs/7/JCQ1k60/ruCEZEs+Rx/4VXxOY7kLtupVJEOX12utS5tITcuYupqUriPxcGdOoM6zeeskwk7Aum7v3Q8ixLoe3yM9Vq3jgUqKIuMp4xLoVu4h3EXm+tCUn960jWCpu7FzkMkDKj57eNahj+5hNp+KwLqyhciLZ/+OPnAoxjGv/2yP1CCko/BXk5OTodTqdMfTf5dz58/or167q4+IT9KfOnNHna7X6uNRUfVhMrP5BdIz+4PET+qC79/S5eXn6Zd98o8/NzTWe+TzaW/P0Nd0G6q8bw7rgZXpRFelbjJmof5Bl2Hb5m/f1Xfou08cZgi+iztHn5WuNgWdo1XkiXuJLzBX9mx8N0m8PyjDskNHo80Tc8vLyjWGBTqP/rael0T7bm5+XK+5NbQwVJUG/YkB7fd95541hAzpdoTjq1IbfV7/4i7pcEW+N9oW4aMUzfkrB+fkvOz9HnP+yO9Hpc3MKXePAED3+0+WvJ6d10rcdtEpvuKM0/cp3OunfnH1cLx2tKXSbUV810lv32Sp/V+dp5L8y91bpvesN0J9MKvQ8C3P7F733O1P1CS88spP69rjoN8Uag4KLMzrr/d9Yq880hpe9XUo/dMo0vU+vD/URBRsFj5e30tP7W2Po1ejEDTz3NLT5clh3fJyeXl8btr0EzZHP9Dbv9dB/5NhHf9p4gTOfmOi7bHr+2Wpjr+t7d62u//mm8ebU4foR3ZvoJ+wKlYObx9fW91kTLX//fYi0KdJAbuHnW4B477mF0+yreNnrNyKlXSndF0rOr0DKI7n6/CJpVIpbvkh7L0l6fx7xt/RfrVyjD0szhl8gXr/jyxX6g+Gp4nuu/sKqZfofTx7Vr50yXL/hvuEICU3+swSYdvEn/YeL9xhDRvIu6KcN+1kvJ0eRB5+SHKRfOv9r/aU4tV6bcUb/5aQl+jvGtJgRtE4/84tNeukN69SFznm4Vz9qyip9svQ9IUi/7OcN+qhC6felRO7VfzL2R/2p6+v1S787oE8yRlfK+88ed45+//cz9WvOPjEEjTt0heKrjr6in7toqf5+fNEMp9PvnzdafyDSGCxE4sW1+jkbnpVZD/d/q5/6qxTW6A99OVj/0ZBF+v1hSYadMjr91V8+10+eMUv/9bE/kr7/AlIe6H/4+Vf9vfjCeSpPf2n5JP2wn68Zw0XRibJPrVcXKUu1Go1erdaI/PNiBog+MFc/9IfLxpARrThenFNwtFZcU1M4bRmRf0u6rjH8DK3Y/mI8CtCI8k067+V79fobvw7Xr7z64lULs/e78fqDDwpfoeA3f/u8vw1Zcfotm+boZw6fqd9TYFgUkHRM//m4Dc/si4QD+ukTtuullP5cfo6+oP9i1nL9PSkPZ8fq169eqb8a9aqnLrLy+XX67zaeEaWRRJ7+/Pqf9JvPhr7wns59NUK/6aExYOTqtqn6sVMW6LccCNL/jtK+2PN379FSUHg50qQVJqZcvXoFnxr+xERHE3rnDpH3Q0iOjaWylxePwx+j00iz/RnPeQkmNfrT0u84hy7ky+HALd9QcvwyKsTe4NojqT0T7kU8wq5da1zF9w2vqei23nDsltftaThqBZ+0rkhJC2vqj99k7FnQcnRpP/w8S1HRw5MW7y0jKEOFuXH2jcQLv9KlVlncKlelUmU3vIb8jNT+k/BdPUw6rJSPgXA+cVZRe5FhUeH8M7Oo8OZMcrIT+OFtfyzKVaGiZQUmXnlZL5MTteqU5MmJrVyQVvA1IrkNSiRd20CfppUpV6UKlW08mXbGcD/b3yxNx+kz6VSqIX3bNcKk3ftEGy+fdXoWFesP4rq4wcybm3itmeH8SjaVmXracP6Ot8rSSZzfwaY6788//ty08gZUWFoVKpLKuoC11CycRVC4O826BRjdXkrg42dORuQTeXIR00K+MGUruaE2dnSbWRRq0XZwwLKUnbxO1ytRmWJexJsHWtB9QBY/bwwyhsV9nN5P88F9kBvItJtYt6Mv02ZNZtCTKDY+TJGP+SPs+qQGldt8YWj5VZ+kdiknpp57zO61Jxj1ZituHtrLrj3HCI43TiMpkXyIwePSOPLjWLIzc+TezwJMzF7SZCzeramZ8ebiQkm0roC/Z4F7jEqcU6S18FVonjC5WyVcKntSxc6NVtPPyZvvrf+Y9j3681n/5pRxKk2FgLc584pHEX19Pj2qDqPgiYau+5gWjZchdVAl/zAQC8eKVHZ0p+es3fK2Au5/3ZiyQ9bJ39U3N9O1fjVKu1ekumc39srpMJ0DI5piWbEK3lXKY+Hdge/PRcrH/9lEhN4TScyV/Phw7gTd4VFM6nMtpbmPHxBu70RtJ8lVzpKG7wznvRYNsNVo5QXDCzAtlABj4vPw8n5+cqCovSfQd+uE7BhjWiivWNhgZWeDmSjz8h5FoS1fn8rGFlzLipVxyosiOUO8abNC59iVwNTS3OB6JeKgy4jh9vWb3At+QJy0JN7LKN+Frxe9R1U53oZedwlpnOizVGdBSUd7keQsRP44z8h+EwkU5YKqUHwzE5Mo4VIOe/siGS7oJ3Zb9adjeWO4KDq5y0vG3MIcSylN67WoS1WhdTNH7l8Offbco06wPaMxbzQwk91/iz16HUI0GAMSFtTv1x7Ti2eR+urTLq5h2k8H5AXhSQhi7VczmDD9c2aOn8UFuWhQ82D3MsZ9PoOZU8fzxU97iTJUUS8lKXATM79dwaZl85k2cRyTF/7I5evnWT53FhPHTmDuT8co6Ee7f2QZkyd+zuzZkxk+bgVhhiJdVDwp7Fo8ikmfz+TzOd+z4bvJDPzugmGfPp/7B39g6kwRxylTmPPNDsJeka5Ukq9mIXKjg1j+zWLuFEzrW5isKLZ9NZnJM2fz+ehxfHfyiXHH35e7RzajdupAA38nkQaK9LEkxpJobsvTDlLnarhlPyBaylOF87ONLea2VoY6UsrPWYmE3L5KyN27RKS/mP5txPHazEy5V1aySbLycjEzNy+UjwWh21ib3YW+hUamqO+u5mBEO97qUZX8fM1zdc/fledTn4LCP4SCosTUzJSMrEwinzyhsmdVGjdpSkpighBAGtnw16skf/NnFfqLVKBOdW8CrxhcSM5vSuK9wT1oLoy1e/elZXEfcHhXIPVr+cr7rUoKm9vaYICXcClN0In7zDwdR07CKrRr1xMotqcF/sKi9WpWBmUSHfGQTYPtuHnloSiEpKIunIWDl1J3/j2Sn4QT9SSeIfFf8fGX93B5bwKlr10gRLr47QPEBFTiztFTUoi7157Qt0lrzMJXsexoL/F7T4jNPk3PSi8zcFXU/2AOg2tfpkfTXkz/6idCn1ZQEXw1dCUd1kWQEBnJk9yvOTyoNzfEHkcXZ54EmrE66xo7jv/C26m5nImXqmU1pw88oNe771PbMpmFH31P2zWG86PUyzk8sCfXxVGlXJyIuKRijfYhqya3ebpg8MuJ4/NR22j5cXvxPY0nVnmYlCzom1fhUNoVtVkKz9UZOdfoM+wswyZJ5zzPjkU/YupdHf9SrzD4TS0pEXqAkUNGMmbkcD76dAmnwgxmeJsOg9EcPG2Yal9/lkchLYQQNFRLKT/O48nQIcIwteS1t3JYvu2evP2P0HPJRt6wvczx4EQOvzYcl6WPmd1ExYU7Gk5v/ZmNu/aw9ZsZ9H19JjdkKyiDZbNm4TxyEI2FHMsVRmkB5la2nF06lEnjP+HD9xZzOUOPiYUFNol3WDl9GJ+OHc9nq27Stttwuvsa7sEiP5WT340V54zhk6EfMXPd7Ve4O2g52Kcb994NIy0qgif593D97k3WioNLOTry+MJdfBacFwZ3NEMqPGD7zpvG857HzMIWB6cST91HzWxK4OjkiANnaP9hKLezYnmSFcbSD+pjXigi5ralcLaX0oCGzSu2495/JymxsYScnUk1cSvBi0Yy9movNLGRhEbGo/2pHiN7zRFP689GQ3pSAmEhD7h2LZBbVy+x7edfOBNRkKnU3L/3gFJlfHGyLWxm5L/kOadyduMmtmzaSGCWLwM6FizaLRHChgs2vNXBON6nEA/OnCDZ2gVPZxXq1BSyS5V8ajiZUAprOzXCzilEHqf3Xsa5VjVDPhSitmmNSiRHBnPp4g6+Xb6HmIxn6aoo6t9oPcq+d5hToSb4+7mIH/egx1udqSBnu2yCjx9ky+bNHLiZS5P2QtA91zKRw7FDsbTu4W8Mv4jKvOCENG7ffkI5WczrpaX2cK8bgFnQee7I96njzuUIPAO8cBBR1f5drbWS5alqkUaKiL+ZpTW21lZItcsDUQ9klHudRV/MYub0gVQQLzvp0iZWXy/NpJli29wljHytCQ5FdGZhzKysyXgch//Hk5mzcD4dHEP4aVci70/9nIXzPqRkyh3uPDI0VzlWac+sRbOYMWM+M5onsmKToZy7vuZr7lQcxsJZM5k1dRClVGosjS1TcZf3sS/Wmzmfi/jMm0vPcgmcuBj8Ql1rIurh0NOb2bNzKxvXHeWJOMDczBxrYaiL6rsQUt7RcfHHH8lqM4cFM2cw6+tJ6Peu5KKhhfFvSVbwFnaGOtO1TR0sswutH1lA5Zq459zjvrE4yQ4+S5gqjawiBdvNo2fRulVAHqZqUYI6NfwgOZQbt/azTNQxocnPO4aXqtmRxvZRrNmwgc0bdxHuUI1W/oVHX+Zz6XQU9TpUN4ZFTku4xJKtMbw1qhkl07INovwfgCKEFP6ZSOJGfLRqYaSkZwhBZMHDBw+4GngZO7sSJCUlkycsA6k+l46Tv7wUFX41ypJ66AjaxG0szBzIW94OVHeLJ+qREEJxF4hLfZPOLxkPn5eVRbcpM5GnVHD2o46ZqLyf6IgNDsO9Zj/qGJWAW7NB9G3sRr5KlPqXv2d9TjeGdihl2CmqvW7v9sXi/BmyrTrzjs06zqZD4K4ntBkmjNkLhwkii0NB+ThWrIi5TzNcYmfSbeYG8q2r0tDpuZrkGfaevDf3GEeXvEP2wYl4dpzIPanOC/qJ2ZdOsrBXXWr4Vce3xjBC067yWGgCvToHrzfek3u+wJf3Gtxk7TGpRypKVHhQPSAA7n/LzEunWNzbcL5f9SHi/CvG83OpKs43DvN8NbpYpjatxym/z9g2sI54kPlyi7Np4bYq8dXK0kKIWWM4Yhe9PPtgO20/X9UtEEwGtg50Y9rVOqyc9wk2xm0vILXGlihHvQZNaNK0Kc0a+FOmhMHoKtuoE1Xtj/BIqogOfcuhhp/STP7dUCZ8nsoXs2tKASqPmEiJFQt4ufn/G1jV5MNBTVg7sCIdwvsI4Si9e2HN6VU4+/dl7ncrWHNoP0Od9zPpx7tkHfua3VZDWfxuXXGcDdZmNjgZn4Neq8HVpyHNmzajeXN/XK3EDp0OrZUDXjWb0raDKTumb6b2m02eClGdiQVuXnVp1lS692bU8SxV+Ek/I/0A4/YHcWlGI2r6+VGjbhv2JYZz6474XU0Odd4cTFd36UAd1T29RR0sNRREMsSlDFV8q1LB7TW2xOlEfItWOypUOo2QC3V43TeIdu37CuFtTaUybtgWPVTOp2Z41yvL0c9qMfqYsIDK16Gq9gYLfo3nne8Hy4aihEnTwXyQeI3dRV3u/xRUmDt60qnva/QfOJg+jUtx+ehJUuV2glwexURTxrPS07i9GkvcqlSharWKlFDf48CZZ+M58m5dJ8GzBoaV554RsnkG665b0qtfF3mCFsmQKvzY9CJupqYmmBT68RPfzuCSSS0GdxX5S8LaiTqtetK//xsMGvQBAfqb7A3842MGc26s5YsVt2j+wQfIc5moytK6W3Pc5AiZ4VC2AlWqVqF0yVQCL9wks6BnQSI2kMP53nTzeHm/rcrcSlx/M1/Mmcu0ad8SUboVXeuXEzesFelejcqlBu084zl9V1xU/YSLcVrqVnUXd/+i3Pz7oEWt1Ra6A0M95Vi+PIlnlrP6arIQSxUpr0ri4pU4qnVpijR9hIS9Qylsf6MLXK/R4FC9Id5yi4QJjs7eNGnsa2igMLWnnEsJsjSGF+RS2YPLmxbx+ex5/HQlFTt5cfcEgiNcaN25mnyMVBa1queFhTyOMZs794IIv3uUeXPnMnfePDacukRkbPYLb0Nqhizh6kGVKpWp4lkOaYjQS2tjKf3mXmFPSAIP9i5h3pw5zF3wI2EpIUQXDKT6u5F1j293pzNgTD957KOZqTlWNkWaCM386Nq7JNvHTWL27NlsDrehjKWzsGOM+wXXfpnE3iduvPFaK0MDiKgTfJp0l/PzG/3G0ds1mC1H7zw3RjYj/CZX0yxoIMrqqlXKYRMbyZ3YQt34ycGcSStFW29jja2OY9vee9R+dyxSMW9qYYmlpc0fGw9dTClazSgo/CMQdi35QgTVqlOHO9eukSuM6dTsHNJy8rCxtSM9KZ4qlSpjZmaKVjr4N/Bu3IOKHsFc3LqX2HbNkMzUhu2acPh+ENfW/MD99p3xNhz6HJLAsnnapKVFa5JJbrqW+Du3CbG2flaACCNfaiWXrc+4OOIs7Z9z4TKxFBIgL51MYea8N6IO3644QZiJFY4VhvLBmzvYfjAJrbsjzWpKxVMDjuU9oHfkl1iqGrE9+7fuzQL/zr1YePAmS8rdZNGqIIhOQFVxOoeuX+HiuTOcO3eTiJgoejqIqk0tKizjTDISLYYOYN+Pe4iJvky+sEcb1LGGMCGMyk3joPH8s2duEBkXSy9xfpY4397qPxWb4bzpW4WIDw5zfNkA+VlLakclRGdEQoGjho74R9Hkp9sh2fk5D9bRoOcsOmy4yOoPCitSNcvbWzOm3GZun5hB3YKpul6GTk2Oix/93u5Ln9f78Vaftni5GE6wd6+Oi5MDZ4PDWbNkI+9N7ixv5/wqVsU8ZqCVmYiiSqSlDtyM38WXBwy7/wiVa/uQ9TAb+5ZtjVt04pnaENDU0NMouQPWrGZObIx4Tx9P4ei8tzE3M8PM3IfV6h1CeHRmxyPxRlUaPFu/TacefXlrYDs8xOuSej/zbMvQrHtf2refx6pPrXmr3yZhqhjQmFnj1ep1OvfoQ78Bb9G1QTk5Kb5Acgz3NO3ZditQvNuznD56mliRpxbUEBpJvH8rYWyr5eSmR6vLIicvW8i5Ciy5d5vAc5e4EfQzvUubkKvRiesLw1y+KJjLhpNGpG9bJtxJ5dh71tRXlWboL1deYsIattQdvIT7T3YS1s+OklUWkmlqSorQjqZSgniKBbZmWWS96IP5X0aabc8EpzIuT4V2ydIu6LPSEUUQ+Zl3SE+rJYzygj6a38Iaz4B61KrViB4d/bi7YRuGvuhsAq/oaNu2cG+Jlis/TGZFTg9mTHqTasaeaIQYzo5Pevp+9fpYkpPMhNEihfLYPGMEt6t+yPh32xobNYriSDU/DyyyskQO+v08PvYT4w5ZMH3xpzRxedm9CsHt7Ued2nVp3bY55ncvcDTimW9u6M07VKjp/8wFqAh6TR5W3h0ZO3YskyaP5aP+LXGWXrfsW6gnX9yw14CupKzfwp3EBByFcV3ZSXocv12+F2ui7vOwbF38xX0W3IakrZ39OjF17nD0hxfwyag1pAqRmZ9rgpXdb3QBFUESIBbmpmhk1aETadhU7oGRg6JO1IrnaiK5NxLE3Hcn89ClK59OmcjIbt7kSCdpE4nMUguDWDrBgJmFCMitU3lkpNlSr++7jB0/llEjRjJl/vdM6VfnhcYAqZ508aqHb406BDTwQZqf86U9eNJlM1JJ1Vdn8KRxjB01ipHDRzF3xTp6/S1XVtETcvggjx4EsnS0uJdRI9lw9w675w5h0cEo4zEGvJt9xIzFUxkzfjKDGrmQo6qAYUJHNSe/HMuOEgP5bGQvKpkXLv+e4SWea4n0dNmVXEabysUDZ1F5N6FhQG1qBzSjhb8Fpw6eJcOolmIe3sOurAcuxnIlLugSNwPPsGfROEaOHMnCTcc5uX0B7397Vt7/d0YRQgr/SESxLgp2Da7OLnhVrUpsdCQ5kj9sRiZhDx9iJQrsypUry2sM6SXD7OXlh4xtmarYpATTf8SvjH+nh7xN5V8Pn117+GD3ed4d3lXe9jLk3qYCxFedqTmVAvwwDT6FsFtlMoLPcvbWfYNvb4MuNErcwmHD0B+Z20cuYVK7gbwYcLWBwym5eAH7tTp8PK3o8P5opk8YSlqUFRUlv/rUh8RaePLxD5e5Muox0+a/pH9Cn0dUbLxxvJJEGcrZpxIfEQ0B3WiVsZ9rT1TYOjji6FCSrGjjtFYi/s/dj+8QZj/8knFLr2NZ6X1qSDdQtystsvZzNdJ4vqM4P8po7Ej3/x9E57etPYhdkMWqgT7GLQILd7q2dif+RKAxzpFcvu1Iy97CmCKNYf0/oueaKwxp/nxf0/FRdZgUcJyIOc+m4P5NVMIQeJkdYSl+36cMYQsGMfbseCbJjeh5bPp2K42+vi/3wkjPRfLt1h8dwLopn8vuWHKdZP5b6quAJyyYsIm3ft3LOzsH86nkh4gPb/fVcnjDJfkIaZzUrRhoXrM10+9LvZ1aYWRr0Kjv8o55L4Ie7peNgex8LZr8QmOJChDH5+caTOO6Y6cREDOPny8YBxCIxG8i0uV/xKM577tcYudJPdbGd6uNN7gPSsniubQhrBYpT0lv28bZmVKOpXBytpeNIJV4zml58U/HiF34eTe3rW2E+E8lUkTR941VZFwYwp09a4lJz+DW+TuGsWByHjVk1PTURDSlurIrQc1w009ZcLY8fRtmcHiFcXyCRMRhjto2pbVhlvs/EXPcq1VGH/eQBKOvSFpyCs5lKlBSiI+bO7aQ1aS5oWf4N8klNb1Q/sgU78fazjAWLeIWl3Uq/Fyd5V0SYfuXs8GiJ0sG1jZuMWAjjBqPpNs8Niqh+Ct3wbMlPuJC11ZM4l6LLxjR/nnLMT83h9x84/vTxhMcEonWvoShTPodpAQdZV2wFfMn9KXw0Dz0mUSERiGNYsvJKdT9o8khX2+Kjbkx3WmiuXHPDG/fZ/f3AlL6MrOSe4KtrSxfMF5EEhevohEdKp7jxx+vgLu//Oz+NjJI5AvLQlPlqTNu8vXSs3R7s6s8jqvgPqQcoM5KId/Wm4GT5tHT5RQ7b5jhVcWCyCuhPB2+k5cjC/HfpHCWFYHnggJ57E5MOFqP1vRr7S3PeHj37iNDXjQtg6djIjevPJv28Na9ULRq6UU4UL68FYnB0ejNxPuysRb5Wyev2/cydM+NjXoF0gNw8cXfLpQ7ovI0t7HBRlxXnZLx93nHz6GiWq/RfP/Dcr788iuWfvUV/X396D5pOeM6liMnNZ74pKyn78RClJE2liZc3X4Yk65tkXJK8ObF7C3/IbNee74pVqPOJSur4OVruHcthBxRBksNNUmPpLG1FlhaqMhMK2guEXVHViZ6oWoNw7XSCb6bhotHRawNRS6la3dn1nc/sWypiOvSpYx/o7Wogz/lx2FNDQcUoEsnPCxGdvxNjnpCYq4eXXYCT6KT/1DDyv8SRQgp/DMRlaZkmGmF0KlVuzZNGzehisjUFSuUo3atmjRs2EQYvWbyMZJoktxHXolDVbpW1BOprkT9ggZ66xaMan+Ba2ea0KW+cZsgX9gumXkGayg/K/Xpd/RqMlPTSM/WU773MFq5nmDoa+8wbsJEpq8/Q1yuozBGxMmurzF9bFmWD+7BB59OYPTIfqxPrc4nY5oZWtKc62MRd5Cg5DqyYYNnA3zvnCTR83WqSLn5xmLatxnDpIlDmR/RgOl9DW5bz6FKY++yiQzoMojxE8YzYuAgfgypybvDGoFjJyaOdGJ+j8Z8OHESI0f0Z8ZaeVSSuJ+0Z/cj48jbk0xZ/0sQrUc2NxQmLj2ZMtaZhd0byuePGtGPaWsKzk8lK7fw+UXI3cV3J6yxOv05E8aNYczo0Yz45BPOJqtoOOgdyiV8x1vDP+G9QcO5UKEu73RyFwbiSrZcteL2mul8OnYMo0aOYNKcb4hKe8CWXWlUCVnPpE/HMWbMGIZ//AGrr76ie0DUNrpb2xkxZDTjx41lxLAhLN1982nBXb9jdY5vOknCh93lCkgbupXFx6zo37ac4YAC2nyM/7UZzBV2mIWZqJ5Pfcu0zyYxZtQnfDRtFY+yX7RMds/sy06VBx27dWHZyX58E9CWo2lQe8iX1L38GZ0nT2ZkzwGsNnmb0T2LOhbGEqeOI8b4WNVZOjJynzcL9DqR9jLSyDV012BSqgmvNSvD9JETCBNh87RI9n01hikTxzN61EgmzJjLzZdOdFCNxfsncKhbad6Y/BkTx75Nr/Fb5T3avCxht+caW3J15GVlkJn9sjEwIglXbom3zy3Gd3yXiVPmcuCJGpc8Ia4yDzG038d8+ukohi6/Q4e+gyjHFho1eQ2pzdEkP4O0HOn5ZXJ8xUh69RvPhPEDCW82njcbOtJ/zli8jk+m/acTmTh+GG+M3E7nNePwlH/1z8WhUgD+NvFs3rCenZs2su9KHjVbNRTmxhOuhFegbR1ZzhRBR352Fs+yVCaBOzexdfsOdu1ay1c7QmjUv4d4BvAoNo4ypatSSvKfkYnjVnA8JdJD2L1rFzt2bGfr5o2cup+OhW1NatY24diqlezcu55fLkLn12uJnwvmZJAe+/jT7N65g+3bt7Nl4wZui3ed+ugyG1Z8x9bde9n883IeuLSiW4NKrywVtZp8cnPVxoketEQ/CiI9JoH9u/awU8Rl25bNHL4aIfT7LZZ89g0h4krhgYfZvGYTO3dt4+dNBzGt3oIWFUrK18uPjSFCl4OrzdMbfAGdJo+cvJcY0nqp9zQHjdaQ2up0a4tZqo4a/gYnMalhIEc2zosxUj2U9JBDuzaLd7+THZu3sGnbNUp0eZ+ORs2qk555vkYuZyMDN/PtD7vYs3sdIU6taOVri1/rzpR5tIfvtmxl18bVbD9+nZQixY1WPIvsPMNG+XrieRoMbb14TnnkiesbgtIzzSNfI8KOXpQ1ucQvm/awe88eHiRpyZdcAITYafNac+K3fct6sX3X7t2EJIp6V040Kmq37ULZx/v4VtzLnp2bWbl+H6EJT/sknqKReo4N3VJP0es0suu68ZWilkSd/A7L0/edZtxe/hm/7tnL7h2r+GH3HcNBf3vSSc/IEB+pjson6OBO9l2S3FM1XNu7gS07drJr5XccN23MB80cxEMK57IQK46pt9gj0oyUn7du2sCFCA3q1GC2fPs1m3bvY9equZyiGX07+Im0E8a6GT9yx9RG1GkBaC4fYP3GbezYsJrdV9IJaNFQdkfWp6byWAgxx1IFLvpFMQw5yMhIL9SgaiT9HPOn/kxEfhoHvvuaXfezyQjaxrcrDxL//GsuNhT7BVUV/rn8mQuqnjx5EhtbW+pL41b+A/MXLpINbqmV8VXkxARx+r6OFi2euW7kR5/nyPUStOlS4+m2uFv7iC3dhZrCXo27eYy40q3wlx3kM7h1/Ba2AY2pUkKFOiGE46cCic83xyOgDeVU8di6VaO0nSR39ASf382VsExUpmbU6foGPoXsg4fXDpBVugU1y0ntO3ncPHMCc792+JYS5+ZFcmDTcZLEM3Wo0YGutV4+Iifn8RWOnAsh00SFTmuDd8PW1PMsWPxRLeK6mdsxIt7i1dTo2B9/UR7G3z5BjFNTapYt1HuQGsKewDzatPMvNP5GI87fZDhf3EuNTgOM558U5zcW57/KPS6Hq4eP8TA5XRhYhjShFRVxQI+3qSZFLf6qqNzvkmXhQkDrjnhLPhT5Tziy+wLJ4jjJKNML4Wtu70KLdm3Iun2a66GxCBtbRjKIqrQaTGN5HEsR8uO4fPYiocbpsrTqPFxrtKFN7QoGAarL4OrZs5h6taeWmyl54v2dvpdG/ab1KSnd5lN0BJ06gNq7IzVVQRy9GEJiplY8RlGxW3nRv3eD59weJSIubCK2bA/qV5RSUTZXth3BtlV3fKTFA1OuslpU9Cam4p47tqaac9GzU7i2/yEenQNkN8KUu/t5WLIjAeUKRSo/nWu3buBctQnuJQ3N9erkB5y4HEed9k0xDTnGkZsJQsRIjQc6zKwdaNGryyvHcsVdXceReyaodPmUCuhOJx9HsmLu8TDVGh8fD2H8a4m9d4sYVVn8vUu/4AojkRcfzPEjl4hVV6P3wIqEX9XjX8+BG/sOcis5C9sy3rRpHYCDSQyn9kVSs0t9bJ5c4VJmBZqJayY8uMSZSw/IFO/dr/sg6hbU1xm3WLP9Fqamemy9mtKj/v/QZ0adQvC9MDLyVDiW8cSzvD2pZ+bydezbTHv9ZdOgqYkNCUFXvjpljTopPeIuwSINmoh8Y+FcCf9KQnarM9m/aSW2DYbS4ql7nZqkJxFExadSMCGaTqumhLs/3m4iJ2pzeBwSREKGeA4etfEtLeXZHJ48DCchLVOk0oL8lU8Zv0aUM03kwf3H8jo88oKoNX1/c0HonLQoYlMtKO/uIvd8ZidHEBaeSL7IhFJ09DotViL+vu5WhAUniN+ojFliOCER8eIYFaa2TnhVq/R0DJg2J5Wo5GxKu5XF8mUJRqBOjSYi24oqZYsYZ3otcZFhmLsIoWgtgvoM4h7l41LZSU572XEPiTUpT+WXuusVEzQ5xIQ/JDpVEnqSq6U5rpWrUdH5WZzVaUIsZlmI+3ciNyWCkIdx5Iv8WtKzPl7GhUb16eHcfBCPWmdKyTIeVC5f6rlevbyEUB7mOuMnBKg6PZbIDDMqlXMWqUFHemw0GWaOlHMWiVGXR2x0PGal3HC2MScz+g7BUVloLctSr6opoYk2eBlFbPrjIO4n5qJyqor745/4Kr4zX7xh6KHQp0dwS46PHrOSZahWpTwFHpwFpD+5Q6qdD+4Oz8osXV4W0fFJOLq5YyuSbnx4MCoXb1yMlUxy2BXCksQ96zXYedTC2/XVdfffBw2JjyLRlPbAzSqVg9v2i3q9E218S/L4RiAJGjN0Onv86nsZx3fmERceTmxShtG9UTw3jRqHKgFUdcwi9M59UvJVksamSr26yEkk6TQjf8hg6cQu8vGZ0aE8iE4RJbaJSC+V8SznIJcMOrVIj7FxlHTzwK5Qdf8MPZmJMaRp7ShT2t7QCFqANpn7IRm4+5YnPewx2tKVcdXFEJ5oSvlKpUX9UPxQhJDCX8afKYTOnjnLaWG4WllZoRWVsuwCJwpjecpX8V0KS41NkqHt5FSKD997X+6+/+dxmBaqDpw2hiRKVmvKpjNn6FAwqvZ/Ti4nF35I30/XGGZiM9Jw4m4uzO1mDP1ZnKOtqinHjCEJO2Eorj13jR5/+mLrUUwr78esqOcXd/zygZ5R/4tuiz/A1Z8+puf7yyk8MW3d4as4+tU7OLzCUFUoSiJbxi2l5GezaP//4Z6XJYyXNd+H03ny27g/Z3EoKBQjsu+xZOYB6k8ZQdM/MFZJ4UX0aZGcuBhIhUa9qfpbLRJ/kJxrq1md15WPGhVpTPiXU6yE0KZNm2RXJTMzcxExHWrJeJUNV6mlUk9cfBxupd2oW7euvPKtwt+bP1MIKSgoKCgoKPx5xJ3/lW/3BSP1eavz3eg25n2alXmZG6iCQvGlWAmhjUIIdenShRJ2dtxI0sn+5nWdnzWBST6QrVu35uLFi3h5ecmD3RWKM1LSerXIUYSQgoKCgoKCgoLCX0Wx6miX3ZXU+aTmaJh0LIobkSl8dCqZd08kcSY6FzO9lu3btsnrwYRHRMi9RArFk9jEJHYfPkl+/stniVFQUFBQUFBQUFD4KylWQkglhI3UC7T9QRZno3JpUNaauQF2zBefuqVMaNepK3379adBo8bk5ea+uich8hRvN3SQ9xd8nLtNJ+LFCUsU/iSSklIIDY9k4+4DaLXFfMYeBQUFBQUFBQWFfx3FSgiZqfQcD8+WB7QvalkKtUbH+MuZTLuWxahLmQwPzGFeCDjZWMjHvJLcNMKqf0honmFskfQ51DKMitauLH82bfrfBB2/ju/DgJ+DjeHiz6PIKM5duY6ZqQnJqWms37GP1LR0414FBQUFBQUFBQWFv55iJYTytDoalLHiQYqa2EwdWx9mU8lMQ3kTDRXEx12lpgz58jSvOmmu3FehUmGqySEp4ZlbVt2xa0hcVoWPW/5o3CKIO8S4UWOZMHYMo1ccfroQmUzGbb6Z+5m8/si8FdtIQM35b9dw07gGoTQD1PYlu+VZlbSxQRy+fJIrm7+Wj1+85rCQLxoOfj2bUaOnsHp3qDxapoDbO+cxShw3YuSX8joeElEXt3IyIpkL345jxOjP2Xo+Qt5+b8MIVh+/w+0NM/lk1Xl5W+T5Xw1rrIxcxO2n8fnrkIRmTFwCN+4Gc+tuCMfOXJDH/5iYmGAi3kVGVhZhkYXnn1JQUFBQUFBQUFD4aylWQkieHU4F1Vzt8HS2xdfVloqlrPFwMMfb1QIf8anibIFGFkG/IYRegdNb7+MSuIOLUiB+P53rTCGvQQAB9WugOzqTuhO3yMeR9ZBpfUdzJN+Z+jWrQNpdIrNT2T3mC04VzHyrf8A3Y1fyQHzVxlxh5utd+OquNQ1rVOHSstcp12oEd60q4l8ph4VjB7Ix1LDsVNjWIQxZm0CNZs1pbXmU5u02yAIs+uSP9PZrywmHpvhYhTF1/CecTAFXj+q4l3bEsbwXtb3c0YWsZdzYHdjWbkGjvOvsjpYv+5cSGR3LzkPHOH72IicuXCYnLw9TU1Py8vMpX9aN/j0641tVPEcFBQUFBQUFBQWFYkKxEkJST4+pOpeK4ccoF3mKshGn8E25Sh37Ety+ouZGoIarl9WYmRp6If6wFHKoTRsyZeGx59NfKDdxBcv69+O1N95l6bqpOCzayjWxL2T7PC5qGrJs+mj6DRzGxE+nUscmBxMbOywLnpjKDBtza3mxMlOVinTPxnzw/gf0fXcYkz7sQhWVA30/fJvBI2YzvLsbx89JPTyhzHnjBmPWLOa9Xj3puWAzrz0ewKoEsBEXdu46iMlv9uTjubPpa1mCK3ejcGo0hE4NvPFt9yaDG5Un9ck9YvNaMfGdnvRfvo5Pi8H6I2VKO1PFvQJmZmbi3ZjKvUDSuKDyZdzo3akdjg4lsbL8Jyx4pqCgoKCgoKCg8E+hWAkhadY4c0sL6jRogn+9hvgHNKKafz0y04OIj11J9cr3aFg5Wl6ZWjpWqCHjmb+TjFuctCpN2fRg1lzKxqNlBeMOgYU/bUo84EaUlkuHo7Du2JXnF6AvKrxUmBqnhtZotFT38aKMYblftCaVqVWtunH1Xy2WVtbi+kIIPNjET7pAPvEpg6uzM05OHhxwaIG0oHxevpp6DRvKZ0jYWMYQ8kAaV5Mv71Pn5cjbS7UYREPT0fi2ep91B6MwKwYzT5ubmdO+ZROcHUuSr1bL26T3075FY/m7goKCgoKCgoKCQnGjWAkhSdio1VoeR4QTGRlBpPgbHRODnaUNbpZmRD+8RU5OohAkItp/3DOO0JnfYjPuCzzthaCwUpOXVVhFZBKTWZJSZUwpUdICs8zsIj+hR6sxwVqIFhltHrF6aRkxAxqtBq3QZhJ6vQa1CBuCenliB2mBWErZUYIPufU4hvjERJKSEggJPEn7EpAj9INa/WyUkl5vIk82IGOiksfbyJhVZX6gnj2feDC/U02m3/nrZ3+QntPJC4Hk5OXLLnCSGNKIh5GXZxBFCgoKCgoKCgoKCsWN4tUjJCxqqSchKzOLrOxssrNzSEhIIC0hiR6N2tHSpwGVSjoKI1srjO/fUkJir7kNzi4WT8NH5vXAc6UTp2dWFWFv3npNxVddJ5NiOIDkHYs41qg9XcUTqdepLqHfzWCncTxQWtRVotRlqeJ5m8W7kuVt95at5LImWnaNk3+viKueFH6KtE+dA04j+LDScgbOCDLugIPf7EQaPWQiX8Ow7en15LAeTUwKqZkGyZV78XsOiHj5957C128kEXjtr3+FJ85d4t6DUFo2qk+Hlk3x9qxEWVcX7EsoK0wrKCgoKCgoKCgUT4qVENJqNZibm+NfsyZ+ftXxq16dGv41xHc/Knl64lmtGpU9q6LRaIRg0j/tjXkBU0vsziygsmXBOkJl+UU9mEfJBylnPKnpZ4e4NSuWUvJ+FRW/MmPT1kmysKnQZRprP3fjvdKGfQFvbyXNxIKPrh+kxCAnsc2DZWkeNFBJc9gJ8aZVyxMDGHqEhHBR55Ofrzb2COlQi335+YbJEhZeuonzuhriGibyteerayCNnlGL/flqjXyMfE6eCItrIPa2eq0hd4dXR9X5B0xV4bzmYIhXX7Pl7Hu7oIvqr+FRRJQ8W1z7Fk2oUtHgati+eRN6d2mHtdVfGzcFBQUFBQUFBQWFV6HSP9d18deycuVKunbtSnDwPUxMTI1bpdmwDepFr9dhb18Sc0tL7t+/T59eveTtCn8dWdk5stuetdUfnwxBmmLbUrzLgveroKCgoKCgoKCg8L+iWPUIST0it27fxq6EPZbW1lhaWWFhaYWZhQWm5ubiY0F2bh6XLl1GJ7nHFR8N96/F1sb6/ySCFBQUFBQUFBQUFP5KilWPUHh4OJmZmfLkAtIAGeMQGWnEjEH0GL9L/Qdubm7yR+Hvi9IjpKCgoKCgoKCg8FdRrISQwr8LRQgpKCgoKCgoKCj8VRQr1zgFBQUFBQUFBQUFBYX/BYoQUlBQUFBQUFBQUFD416EIIQUFBQUFBQUFBQWFfx2KEFJQUFBQUFBQUFBQ+NehCCEFBQUFBQUFBQUFhX8dihBSUFBQUFBQUFBQUPjXoQghBQUFBQUFBQUFBYV/HYoQUlBQUFBQUFBQUFD416EIIQUFBQUFBQUFBQWFfx0qvcD4/S8jPT2diIgIY+j3o1Kp8PPzM4YU/m7k5uZiaWkpv0cFBQUFBQUFBQWF/yXFokcoOjqa2NhYXB2tcXWw+F2fUg52XLx40XgFheJGfFIyB46fRq1WG7coKCgoKCgoKCgoFB+KRY9QcHAwJaxg00NvwuOFOlNJvT3Gj3RAkQ6D7Hz4uC2EnttEzz5vGLc+I/PuTgb17cW2O1JIRcAbS9m78RNcRWh5RxXLLFdzetfbOEm7Ff4Ugh+EceDkWdxcnejfo4tx6/MoPUIKCgoKCgoKCgp/FcVmjJBOp0MnJJm1NXiV0+NYQofKRGwT/zR6w0ctjnn2kc56uYZTp8Wgaj2OJKHx9OK8dzULaPnOCpLFviEH9dz5TRGUx/ejezNwzX1jWOGPEhkdy5nLVzEzNSEuIYm12/aQkZFp3KugoKCgoKCgoKDw12M6Q2D8/peRmJhoUGS2TlQuo8Hf25RyzirK2KtwKglW5uAivldyU1GulApXBxW+ZVXEhAbh41ddvkZh8qKusefaExo27YKzFVRwzeHQyWDa9epGypnlBJvXpYK4nkTmjdXMWb6b0ydPklamCZYXprNk42UinkTxxMKdVlUyOb79Hg5+7giNRk5UIEdOplGpmguPD//KHUsHzs1dySOHilQra0/2tVXMWrGbU6duY+lbmwq2puKsbM7vWc3PG3cReDuDyvWrUeIf1AkidSomJCUTHhVDYnIqJy9cJjsnB1NTce9iX75ajZW1FWVLS31yz9BoNJiZmSk9QgoKCgoKCgoKCv9zik2PkKmpFTER+wi8vJFz504Q9yQIz3JQt4qKZt4mNPVW0chLRUPxkb67CYGk/Q9OfQX2tfTXxckReyGKji39mFU3NYYdob/QsuNK0iqWp7T+FvsvJmFpY4+1hTnmVrY42NmRG3+cb8evomAqh7Rbm5k34zA54vvlpR8wbtz33DJzpaS9Ezz6idZjD2FVoRwVsy/Qv9N8YsRxjzYvYsGPFzBxLofp9V0cT5Ev9Y8hKjaeHQePceDEGQ6fPkd2bq4sgiQBVNbNlde7dsDPq4rxaAUFBQUFBQUFBYW/nmIjhMzNLbh59zzHLm7kyLn17Dm6jjPnD+NgCaXswNEanISQKSnC9hZgJcTNK0c3iX0mFjY4CrEEWcwbMoUM99a4iJC5uIa1ubn4ls7XHQbjsegsX777Lh99vo0v+7tRps04erbwp27vYYxuVxm11gRrO2vMpEsJTMUF7Ows5QdnYWmBSe2BzJ01iBZeuXzdbgW9f13P5Pfe493565jmMI9l1yD8dgRlGgxh6rAPGfPz9/RyMFzrn4IkMsuVdsVMiB/pYyKUp1anw9XJiZ6d2uLq7IS1lXjwCgoKCgoKCgoKCsWE4tMjZGZCWFAs0ffSCA16QMjDq/y4ZSHdh7Tnw5lDGbFkJiO/+YV1R64SHRMnDG2pp+flLlWmVnYkbF+Eq4kFKksPEkc/YP+M9vI+rfSfpINidzA2tDdT35I2GLAWAgt9Frl5+ahzsw0bi2Ji8nTuBnW+mvpNfQ2BxweZl3SHqTWssRRCy9zCmiFn82TXvEZvteLR4gCqvvsroRFabIrNU//vYGlhQdd2LWVBJPUCSejEC+rargVmJpJroIKCgoKCgoKCgkLxotiY5HqdGoeyAdi7tcDCpilWZk2p7NqeWp4dqVOhNgHulanpJkSGLpxjgUcJi43C9BVGtjYnE9fXJpCky0efl8CaDz2Ne4xIPTKy5uMAAAJ7SURBVEklHXAnSfx7CSYqVNLUdQJp/IuJUE6SdpKwUGeSpDJ5+uCezg5d0grb1GacT88hT2xU5+eQn6dmjNBJltXe5GBSJrNK76NZ5ZZsyzCe8w/i7OVrZOfk4VWpongmGjRaDbm5+ca9CgoKCgoKCgoKCsWLYiSENORbepJv7Yu+hB9aW2+w9cXaqTau5eriXqEOHkIQebrXwa9yfRztXdHp5anjXoomJ4OEVGOgKFK3kHV3pnYOZGjfQ4ZtPOb0rSx5QJE2No2MHIP0sbJwIDLrLHcSpZCaBW98Q0wJawwSrJBvnmM3pnY/z4A++4wb4MrGQyTpswm9doQwbOk3bwujvC9z8ZbxgH8Ipy9d4XbwfZo3qEuXti3xrOSOm4sLJexsjEcoKCgoKCgoKCgoFC+KjRDKytOy9rP2nPm6H0cXv8GeL15nxbhOzB7cko+61aFvS196Nq1G61oedG5QFVc7c7TSfNsvQZufRWp6GmrZD+55soQ4Ss+ReipUDNqXSo+gjrKLnUrlxYpb0tQGJWnRyYdT73uhav81FmVfY+KI8rzrIh3TkzJLBlLhSRK54sjsFA3p0hcZM97ZlcRrD7qK40zla7bYEoWTyobQffOpIv+Gir1vXmBhE+Mp/wAeR0Zz6dpNWjVugFdlD3lb+xZN6NWxDTbSXOgKCgoKCgoKCgoKxZBisaBqZGQkp0+fxtxMEhBig4hR4UgZYqh/YZsU9QEDBhi3KPwVZGZlY2pq8n+aDEFZUFVBQUFBQUFBQeGvolgIIYV/J4oQUlBQUFBQUFBQ+Kv4h81fpqCgoKCgoKCgoKCg8J9RhJCCgoKCgoKCgoKCwr8M+H92vUI0OQX8yAAAAABJRU5ErkJggg==;" vertex="1" parent="1">
          <mxGeometry width="834" height="222" as="geometry" />
        </mxCell>
        <mxCell id="zRM0NVhPmcdbdyi5GUMT-2" value="" style="shape=flexArrow;endArrow=classic;html=1;rounded=0;strokeColor=#FF0000;fillColor=#FF0000;" edge="1" parent="1">
          <mxGeometry width="50" height="50" relative="1" as="geometry">
            <mxPoint x="500" y="220" as="sourcePoint" />
            <mxPoint x="440" y="160" as="targetPoint" />
          </mxGeometry>
        </mxCell>
      </root>
    </mxGraphModel>
  </diagram>
</mxfile>
